<?xml version="1.0" encoding="utf-8"?>
<!-- Generator: Adobe Illustrator 19.0.0, SVG Export Plug-In . SVG Version: 6.00 Build 0)  -->
<svg version="1.1" id="Layer_1" xmlns="http://www.w3.org/2000/svg" xmlns:xlink="http://www.w3.org/1999/xlink" x="0px" y="0px"
	 viewBox="0 0 157.2 38.7" style="enable-background:new 0 0 157.2 38.7;" xml:space="preserve">
<style type="text/css">
	.st0{fill:#FFFFFF;}
</style>
<g id="XMLID_2_">
	<g id="XMLID_135_">
		<path id="XMLID_6_" class="st0" d="M64.4,0.3c-0.4,2.1-1,4.5-1.9,7.2c-0.8,2.7-1.9,5.5-3.1,8.3c-1.2,2.8-2.6,5.6-4.1,8.4
			c-1.5,2.7-3.2,5.2-5,7.3c-1.8,2.1-3.7,3.9-5.7,5.2c-2,1.3-4.1,2-6.2,2c-1.4,0-2.6-0.3-3.5-1c-0.9-0.6-1.7-1.5-2.2-2.6
			c-1.5,1.1-3,2-4.5,2.6c-1.5,0.6-3,1-4.5,1c-1.8,0-3.2-0.5-4.2-1.5c-1-1-1.6-2.2-1.9-3.8c-0.3-1.6-0.3-3.4,0.1-5.4
			c0.3-2,0.9-4.2,1.7-6.3c0.8-2.2,1.9-4.3,3.1-6.4c1.2-2.1,2.6-4.1,4.2-5.8c1.5-1.7,3.2-3.2,4.9-4.4c1.7-1.2,3.5-2,5.4-2.3
			c-1-0.3-2.2-0.6-3.5-0.7c-1.3-0.1-2.7-0.2-4.1-0.2c-3.5,0-6.5,0.6-9.2,1.8c-2.7,1.2-4.9,2.7-6.7,4.6c-1.8,1.8-3.2,3.8-4.3,5.9
			c-1,2.1-1.6,4.1-1.8,5.9c-0.2,1.8,0,3.3,0.6,4.6c0.6,1.2,1.6,1.8,3,1.8c0.6,0,1.2-0.2,1.6-0.5c0.4-0.4,0.7-0.8,0.6-1.2
			c0-0.4-0.3-0.8-0.8-1.2c-0.5-0.4-1.4-0.5-2.7-0.5c0-0.9,0.4-1.5,1.3-2c0.8-0.5,1.8-0.7,2.8-0.8c1,0,2,0.2,2.8,0.7
			c0.8,0.5,1.3,1.3,1.3,2.5c0,0.8-0.2,1.5-0.7,2.1c-0.4,0.6-1,1.2-1.7,1.6c-0.7,0.4-1.5,0.8-2.5,1c-0.9,0.3-1.9,0.4-2.8,0.4
			c-2.4,0-4.3-0.4-5.8-1.2C3.1,26.4,2,25.3,1.4,24c-0.6-1.3-0.8-2.9-0.6-4.6c0.2-1.7,0.8-3.5,1.7-5.2c0.9-1.8,2.2-3.5,3.9-5.2
			c1.6-1.7,3.6-3.2,5.9-4.6c2.3-1.3,4.8-2.4,7.7-3.2C23,0.4,26.1,0,29.5,0c2.3,0,4.5,0.2,6.5,0.7c2,0.4,3.8,1.1,5.2,2.1
			c0,0-0.1,0-0.2,0c-0.1,0-0.2,0-0.2,0c-0.1,0-0.2,0-0.2,0c-1,0.2-2.2,0.8-3.3,1.9c-1.2,1.1-2.3,2.4-3.5,4c-1.1,1.6-2.3,3.4-3.3,5.4
			c-1.1,2-2,4-2.9,6c-0.8,2-1.6,4-2.1,5.9c-0.6,1.9-1,3.6-1.1,5.1c-0.2,1.5-0.1,2.7,0.2,3.6c0.3,0.9,0.9,1.4,1.8,1.4
			c1.4,0,3.3-1,5.7-3.1c-0.3-1.3-0.4-2.9-0.2-4.6c0.1-1.7,0.4-3.5,0.8-5.4c0.4-1.9,1-3.7,1.7-5.7c0.7-1.9,1.6-3.8,2.5-5.5
			c1-1.8,2-3.4,3.1-4.9c1.1-1.5,2.3-2.8,3.6-3.8c1.3-1,2.6-1.8,4-2.3c1.4-0.5,2.7-0.5,4.1-0.2c1.1,0.3,1.8,1,1.9,2.1
			C53.7,4,53.5,5.4,52.9,7c-0.5,1.7-1.4,3.5-2.5,5.5c-1.1,2-2.3,4.1-3.7,6.1c-1.3,2-2.7,4-4.1,5.9c-1.4,1.9-2.7,3.6-3.9,5
			c-0.2,1.9-0.1,3.5,0.2,4.7c0.3,1.2,1,1.8,2.1,1.8c0.8,0,1.8-0.5,3-1.4c1.2-0.9,2.4-2.2,3.7-3.8c1.3-1.6,2.6-3.5,4-5.8
			c1.3-2.2,2.6-4.7,3.9-7.3c1.2-2.6,2.4-5.5,3.4-8.4c1-3,1.9-6,2.6-9.1H64.4z M50.7,2.9c-0.5-0.1-1.1,0.1-1.8,0.8
			c-0.7,0.7-1.3,1.6-2.1,2.7c-0.7,1.2-1.4,2.5-2.2,4.1c-0.7,1.6-1.4,3.2-2.1,4.8c-0.7,1.7-1.3,3.3-1.8,5c-0.5,1.7-1,3.2-1.3,4.5
			c0.8-1,1.6-2.2,2.6-3.7c1-1.4,2-3,3-4.5c1-1.6,1.9-3.2,2.8-4.8c0.9-1.6,1.6-3,2.2-4.3c0.6-1.3,1-2.4,1.1-3.2
			C51.2,3.5,51.1,3,50.7,2.9z"/>
		<path id="XMLID_128_" class="st0" d="M38.5,39.2c-1.5,0-2.8-0.3-3.8-1c-0.8-0.6-1.6-1.3-2.1-2.3c-1.4,1-2.8,1.8-4.1,2.3
			c-1.6,0.7-3.1,1-4.7,1c-1.9,0-3.5-0.5-4.5-1.6c-1.1-1-1.7-2.4-2-4.1c-0.3-1.6-0.3-3.5,0.1-5.6c0.1-0.7,0.2-1.3,0.4-2
			c-0.5,0.6-1,1.1-1.7,1.5c-0.8,0.5-1.6,0.8-2.6,1.1c-1,0.3-2,0.4-3,0.4c-2.4,0-4.5-0.4-6-1.3c-1.6-0.9-2.7-2-3.3-3.4
			c-0.6-1.4-0.8-3-0.6-4.8c0.2-1.8,0.8-3.6,1.8-5.4c1-1.8,2.3-3.6,4-5.3c1.7-1.7,3.7-3.3,6-4.7c2.3-1.3,4.9-2.4,7.8-3.3
			c2.9-0.8,6.1-1.2,9.5-1.2c2.3,0,4.5,0.2,6.6,0.7c2.1,0.5,3.9,1.2,5.3,2.2L42,2.7l-0.5,0.4c-0.2,0.1-0.4,0.1-0.6,0.2
			c-0.1,0-0.2,0-0.3,0c-0.9,0.2-1.9,0.8-3,1.7c-1.1,1-2.3,2.3-3.4,3.9c-1.1,1.6-2.2,3.3-3.3,5.3c-1.1,2-2,4-2.8,6
			c-0.8,2-1.6,4-2.1,5.9c-0.6,1.9-0.9,3.6-1.1,5c-0.2,1.4-0.1,2.6,0.2,3.4c0.2,0.7,0.7,1,1.4,1c1.2,0,3-0.9,5.2-2.8
			c-0.2-1.3-0.3-2.8-0.2-4.4c0.1-1.7,0.4-3.6,0.8-5.4c0.4-1.9,1-3.8,1.7-5.7c0.7-1.9,1.6-3.8,2.6-5.6c1-1.8,2-3.4,3.2-4.9
			c1.1-1.5,2.4-2.8,3.7-3.9c1.3-1.1,2.7-1.9,4.1-2.4c1.5-0.5,2.9-0.6,4.4-0.2c1.3,0.3,2.1,1.2,2.3,2.5C54.2,4,54,5.5,53.4,7.2
			c-0.5,1.7-1.4,3.6-2.5,5.6c-1.1,2-2.3,4.1-3.7,6.1c-1.3,2-2.7,4-4.1,6c-1.4,1.9-2.7,3.5-3.8,4.9c-0.2,1.8-0.1,3.3,0.2,4.4
			c0.3,1.3,1.1,1.4,1.6,1.4c0.7,0,1.6-0.4,2.7-1.3c1.1-0.9,2.3-2.1,3.6-3.7c1.3-1.6,2.6-3.5,3.9-5.7c1.3-2.2,2.6-4.6,3.9-7.3
			c1.2-2.6,2.4-5.4,3.4-8.4c1-2.9,1.9-6,2.6-9.1l0.1-0.4H65l-0.1,0.6c-0.4,2.1-1,4.5-1.9,7.2c-0.8,2.7-1.9,5.5-3.1,8.4
			c-1.2,2.8-2.6,5.7-4.1,8.4c-1.5,2.8-3.2,5.3-5,7.4C49,34,47,35.8,45,37.1C42.9,38.5,40.7,39.2,38.5,39.2z M32.9,34.4l0.3,0.5
			c0.5,1,1.2,1.8,2.1,2.4c0.8,0.6,1.9,0.9,3.2,0.9c2,0,4-0.6,5.9-1.9c2-1.3,3.8-3,5.6-5.1c1.8-2.1,3.4-4.5,4.9-7.3
			c1.5-2.7,2.9-5.5,4.1-8.3c1.2-2.8,2.2-5.6,3.1-8.3c0.8-2.4,1.3-4.6,1.7-6.5H62c-0.7,3-1.5,5.9-2.5,8.8c-1,3-2.2,5.8-3.5,8.5
			c-1.3,2.7-2.6,5.1-3.9,7.4c-1.4,2.2-2.7,4.2-4,5.8c-1.3,1.6-2.6,2.9-3.8,3.9c-1.3,1-2.4,1.5-3.3,1.5c-0.9,0-2.1-0.4-2.5-2.2
			c-0.3-1.3-0.4-2.9-0.2-4.9l0-0.2l0.1-0.1c1.2-1.4,2.5-3.1,3.9-5c1.4-1.9,2.8-3.9,4.1-5.9c1.3-2,2.5-4.1,3.6-6.1
			c1.1-2,1.9-3.8,2.4-5.4C53,5.3,53.2,4,53,2.9c-0.1-0.9-0.6-1.5-1.5-1.7C50.2,1,49,1,47.7,1.4c-1.3,0.4-2.6,1.2-3.8,2.2
			c-1.2,1-2.4,2.3-3.5,3.7c-1.1,1.5-2.1,3.1-3.1,4.8c-0.9,1.7-1.8,3.6-2.5,5.5c-0.7,1.9-1.3,3.8-1.7,5.6c-0.4,1.8-0.7,3.6-0.8,5.3
			c-0.1,1.7,0,3.2,0.2,4.4l0.1,0.3l-0.2,0.2c-2.5,2.2-4.5,3.2-6.1,3.2c-1.1,0-1.9-0.6-2.3-1.7c-0.3-1-0.4-2.3-0.2-3.8
			c0.2-1.5,0.5-3.3,1.1-5.2c0.6-1.9,1.3-3.9,2.2-6c0.8-2,1.8-4.1,2.9-6.1c1.1-2,2.2-3.8,3.4-5.4c1.2-1.6,2.4-3,3.5-4.1
			c0.7-0.7,1.5-1.2,2.2-1.5l-1.9,0.3c-1.8,0.3-3.5,1-5.2,2.2c-1.7,1.2-3.3,2.6-4.8,4.3c-1.5,1.7-2.9,3.6-4.1,5.7
			c-1.2,2.1-2.3,4.2-3.1,6.4c-0.8,2.1-1.4,4.2-1.7,6.2c-0.3,2-0.3,3.8-0.1,5.3c0.3,1.5,0.9,2.7,1.8,3.6c0.9,0.9,2.2,1.3,3.8,1.3
			c1.4,0,2.9-0.3,4.3-0.9c1.5-0.6,2.9-1.5,4.4-2.6L32.9,34.4z M29.5,0.5c-3.3,0-6.4,0.4-9.2,1.2c-2.8,0.8-5.4,1.9-7.6,3.2
			c-2.2,1.3-4.2,2.8-5.8,4.5C5.2,11,4,12.7,3,14.4c-0.9,1.7-1.5,3.4-1.7,5c-0.2,1.6,0,3.1,0.5,4.3c0.6,1.2,1.5,2.2,2.9,3
			c1.4,0.8,3.2,1.2,5.5,1.2c0.9,0,1.8-0.1,2.7-0.4c0.9-0.2,1.7-0.6,2.3-1c0.7-0.4,1.2-0.9,1.6-1.5c0.4-0.5,0.6-1.1,0.6-1.8
			c0-1-0.3-1.6-1-2c-0.8-0.5-1.6-0.7-2.5-0.7c-0.9,0-1.8,0.2-2.6,0.7c-0.5,0.3-0.8,0.7-1,1.1c1.1,0.1,1.9,0.3,2.4,0.6
			c0.7,0.5,1,1,1.1,1.6c0,0.6-0.2,1.2-0.8,1.6c-0.5,0.4-1.2,0.7-1.9,0.7c-1.6,0-2.8-0.7-3.5-2.1C7,23.5,6.8,21.9,7,20
			c0.2-1.9,0.8-3.9,1.9-6.1c1-2.2,2.5-4.2,4.4-6.1c1.9-1.9,4.2-3.4,6.9-4.7c2.7-1.2,5.9-1.9,9.4-1.9c1.4,0,2.8,0.1,4.1,0.2
			c1.3,0.1,2.5,0.4,3.6,0.7L39,2.8c0.3-0.1,0.5-0.2,0.7-0.3c-1.1-0.6-2.4-1-3.9-1.4C33.9,0.7,31.7,0.5,29.5,0.5z M29.5,2.3
			c-3.4,0-6.4,0.6-9,1.8c-2.6,1.2-4.8,2.7-6.6,4.5c-1.8,1.8-3.2,3.7-4.2,5.8c-1,2.1-1.6,4-1.8,5.8c-0.2,1.7,0,3.2,0.6,4.3
			c0.5,1,1.4,1.6,2.6,1.6c0.5,0,1-0.1,1.3-0.4c0.5-0.4,0.5-0.7,0.5-0.8c0-0.3-0.2-0.6-0.6-0.8c-0.3-0.2-1-0.5-2.4-0.5H9.4v-0.5
			c0-1,0.5-1.9,1.5-2.5c0.9-0.5,1.9-0.8,3-0.8c1.1,0,2.1,0.3,3.1,0.8c0.9,0.5,1.4,1.3,1.5,2.4c0.1-0.4,0.3-0.9,0.5-1.3
			c0.8-2.2,1.9-4.4,3.1-6.5c1.3-2.1,2.7-4.1,4.2-5.9c1.5-1.8,3.2-3.3,5-4.5c1.2-0.8,2.4-1.5,3.7-1.9c-0.5-0.1-1-0.2-1.5-0.2
			C32.2,2.3,30.9,2.3,29.5,2.3z M38.4,27.1l0.5-2.3c0.3-1.4,0.8-2.9,1.3-4.6c0.5-1.7,1.2-3.4,1.8-5c0.7-1.7,1.4-3.3,2.1-4.9
			c0.7-1.6,1.5-3,2.2-4.1c0.7-1.2,1.4-2.2,2.1-2.8c0.8-0.8,1.5-1.1,2.2-0.9l0,0c0.5,0.1,1,0.6,0.8,2c-0.2,0.9-0.6,2-1.2,3.3
			c-0.6,1.3-1.3,2.8-2.2,4.4c-0.9,1.6-1.8,3.2-2.8,4.8c-1,1.6-2,3.1-3,4.6c-1,1.4-1.9,2.7-2.6,3.7L38.4,27.1z M50.4,3.3
			c-0.4,0-0.8,0.4-1.2,0.7c-0.6,0.6-1.3,1.5-2,2.6c-0.7,1.2-1.4,2.5-2.1,4.1c-0.7,1.5-1.4,3.1-2.1,4.8c-0.7,1.6-1.3,3.3-1.8,5
			c-0.2,0.7-0.4,1.3-0.6,1.9c0.3-0.5,0.7-1,1-1.5c1-1.4,2-2.9,2.9-4.5c1-1.6,1.9-3.2,2.8-4.7c0.9-1.6,1.6-3,2.2-4.3
			c0.6-1.3,0.9-2.3,1.1-3.1c0.1-0.4,0.1-0.8-0.1-0.9C50.5,3.3,50.4,3.3,50.4,3.3z"/>
	</g>
	<g id="XMLID_127_">
		<path id="XMLID_9_" class="st0" d="M77.1,16.9c-0.6,1.7-1.2,3.3-1.8,4.8c-0.5,1.3-1,2.5-1.4,3.8c-0.5,1.3-0.8,2.2-1.1,2.8
			c-0.5,1.2-0.7,2-0.5,2.3s0.3,0.5,0.7,0.6c0.4,0.1,1,0,1.7-0.4c0.7-0.3,1.3-0.9,1.8-1.7h0.8c-0.5,1-1,1.8-1.7,2.5
			c-0.6,0.7-1.3,1.2-2,1.7c-0.7,0.4-1.4,0.7-2.1,0.9s-1.3,0.3-1.8,0.3c-0.7,0-1.4-0.2-2.1-0.5c-0.6-0.3-1-1-1.1-2
			c-0.8,0.7-1.8,1.3-3,1.8c-1.1,0.5-2.2,0.7-3.3,0.7c-0.8,0-1.4-0.2-1.9-0.6c-0.5-0.4-0.8-1-1-1.8c-0.1-0.8,0-1.8,0.3-3.1
			c0.3-1.2,1-2.7,1.9-4.3c0.9-1.7,2.1-3.1,3.6-4.3c1.4-1.2,3-2.1,4.6-2.8c1.6-0.7,3.3-1.1,4.9-1.2C74.3,16.2,75.8,16.4,77.1,16.9z
			 M66.7,29.8c0.1-0.5,0.3-1,0.5-1.6l3.6-9.4c-0.2-0.1-0.5-0.1-0.7-0.1c-0.6,0-1.3,0.3-2,0.9c-0.7,0.6-1.3,1.3-1.9,2.2
			c-0.6,0.9-1.2,1.9-1.7,2.9c-0.5,1-0.9,2-1.1,2.9c-0.2,0.9-0.3,1.7-0.2,2.2c0.1,0.6,0.4,0.9,0.9,0.9c0.4,0,0.8-0.1,1.3-0.4
			C66,30.2,66.4,30,66.7,29.8z"/>
		<path id="XMLID_122_" class="st0" d="M69.7,35c-0.8,0-1.6-0.2-2.3-0.6c-0.6-0.3-1-0.8-1.2-1.6c-0.7,0.5-1.5,1-2.4,1.3
			c-1.2,0.5-2.4,0.8-3.5,0.8c-0.9,0-1.6-0.2-2.2-0.7c-0.6-0.5-1-1.2-1.2-2.1c-0.1-0.9,0-2,0.3-3.3c0.4-1.3,1-2.8,1.9-4.4
			c0.9-1.7,2.2-3.2,3.7-4.4c1.5-1.2,3.1-2.2,4.7-2.9c1.7-0.7,3.4-1.1,5-1.2c1.7-0.1,3.3,0.1,4.6,0.6l0.5,0.2l-0.2,0.5
			c-0.6,1.7-1.2,3.3-1.8,4.8c-0.5,1.3-1,2.5-1.4,3.8c-0.5,1.3-0.8,2.2-1.1,2.8c-0.6,1.6-0.6,1.9-0.5,2c0.1,0.2,0.2,0.2,0.3,0.3
			c0.2,0,0.7,0,1.4-0.3c0.6-0.3,1.1-0.8,1.6-1.5l0.1-0.2H78l-0.4,0.7c-0.5,1-1.1,1.9-1.8,2.6c-0.7,0.7-1.4,1.3-2.1,1.8
			c-0.7,0.4-1.5,0.8-2.2,1C70.9,34.9,70.2,35,69.7,35z M67,30.9l0.1,1c0.1,0.8,0.3,1.4,0.8,1.6c1,0.5,2,0.6,3.5,0.2
			c0.6-0.2,1.3-0.5,1.9-0.9c0.7-0.4,1.3-0.9,1.9-1.6c0.1-0.1,0.2-0.3,0.4-0.4c-0.2,0.2-0.5,0.3-0.7,0.4c-0.8,0.4-1.5,0.5-2,0.4
			c-0.5-0.1-0.8-0.4-1-0.9c-0.1-0.3-0.2-0.9,0.5-2.7c0.2-0.6,0.6-1.6,1.1-2.8c0.5-1.3,1-2.5,1.4-3.8c0.5-1.3,1-2.8,1.6-4.3
			c-1.1-0.3-2.4-0.4-3.7-0.3C71.1,17,69.5,17.4,68,18c-1.6,0.6-3.1,1.6-4.5,2.7c-1.4,1.1-2.5,2.5-3.4,4.2c-0.9,1.6-1.5,3-1.9,4.2
			c-0.3,1.2-0.4,2.1-0.3,2.9c0.1,0.7,0.4,1.2,0.8,1.5c0.4,0.3,1,0.5,1.6,0.5c1,0,2.1-0.2,3.1-0.7c1.1-0.5,2-1,2.8-1.7L67,30.9z
			 M64.2,31.3c-0.8,0-1.3-0.5-1.4-1.3c-0.1-0.7-0.1-1.5,0.2-2.4c0.2-0.9,0.6-1.9,1.1-3c0.5-1,1.1-2,1.7-3c0.6-0.9,1.3-1.7,2-2.3
			c1.1-0.9,2.1-1.2,3.2-0.9l0.5,0.1l-3.8,9.9c-0.2,0.6-0.4,1.1-0.5,1.5l-0.1,0.2L67,30.3c-0.3,0.2-0.7,0.4-1.2,0.7
			C65.2,31.2,64.7,31.3,64.2,31.3z M70.1,19.3c-0.5,0-1.1,0.3-1.7,0.8c-0.6,0.6-1.3,1.3-1.8,2.1C66,23.1,65.4,24,65,25
			c-0.5,1-0.8,1.9-1,2.8c-0.2,0.8-0.3,1.5-0.2,2c0.1,0.4,0.2,0.5,0.4,0.5c0.3,0,0.7-0.1,1.1-0.3c0.4-0.2,0.7-0.4,1-0.5
			c0.1-0.4,0.3-0.9,0.5-1.4L70.1,19.3C70.1,19.3,70.1,19.3,70.1,19.3z"/>
	</g>
	<g id="XMLID_120_">
		<path id="XMLID_11_" class="st0" d="M82.1,28.3c-0.5,1.2-0.7,2-0.5,2.3c0.1,0.3,0.3,0.5,0.7,0.6c0.4,0.1,1,0,1.7-0.4
			c0.7-0.3,1.2-0.9,1.7-1.7h1c-0.5,1-1,1.8-1.7,2.5c-0.6,0.7-1.3,1.2-2,1.7c-0.7,0.4-1.4,0.7-2.1,0.9s-1.3,0.3-1.8,0.3
			c-0.6,0-1.1-0.1-1.6-0.3c-0.5-0.2-0.9-0.5-1.2-0.9c-0.3-0.4-0.5-1.1-0.5-1.9c0-0.8,0.2-1.8,0.7-3.1l8.7-22.8h5.5
			c-1.4,3.8-2.8,7.3-3.9,10.4c-0.5,1.3-1,2.7-1.5,4c-0.5,1.3-1,2.6-1.4,3.7c-0.4,1.1-0.8,2.1-1.1,2.9C82.4,27.4,82.2,28,82.1,28.3z"
			/>
		<path id="XMLID_117_" class="st0" d="M79,35c-0.6,0-1.2-0.1-1.8-0.3c-0.6-0.2-1.1-0.6-1.5-1.1c-0.4-0.5-0.5-1.3-0.5-2.2
			c0-0.9,0.2-2,0.8-3.3L84.8,5h6.6l-0.3,0.7c-1.4,3.8-2.8,7.3-3.9,10.4c-0.5,1.3-1,2.7-1.5,4l-2.5,6.6c-0.3,0.8-0.5,1.4-0.6,1.7l0,0
			c-0.6,1.6-0.5,1.9-0.5,2c0.1,0.2,0.2,0.2,0.3,0.3c0.3,0.1,0.8,0,1.3-0.3c0.6-0.3,1.1-0.8,1.5-1.5l0.1-0.2h2.1L87,29.3
			c-0.5,1-1.1,1.9-1.8,2.6c-0.7,0.7-1.4,1.3-2.1,1.8c-0.7,0.5-1.5,0.8-2.2,1C80.2,34.9,79.6,35,79,35z M85.5,6L77,28.5
			c-0.5,1.2-0.7,2.2-0.7,2.9c0,0.7,0.1,1.2,0.4,1.6c0.2,0.4,0.6,0.6,1,0.7c0.9,0.3,1.8,0.3,3.1,0c0.6-0.2,1.3-0.5,1.9-0.9
			c0.7-0.4,1.3-0.9,1.9-1.6c0.2-0.2,0.4-0.4,0.6-0.7c-0.3,0.3-0.6,0.5-1,0.7c-0.8,0.4-1.4,0.5-2,0.4c-0.5-0.1-0.8-0.4-1-0.9
			c-0.1-0.3-0.2-0.9,0.5-2.7c0.1-0.3,0.3-0.9,0.6-1.7l2.5-6.6c0.5-1.4,1-2.7,1.5-4c1.1-2.9,2.3-6.2,3.7-9.7H85.5z"/>
	</g>
	<g id="XMLID_116_">
		<path id="XMLID_13_" class="st0" d="M91.3,28.3c-0.5,1.2-0.7,2-0.5,2.3c0.1,0.3,0.3,0.5,0.7,0.6c0.4,0.1,1,0,1.7-0.4
			c0.7-0.3,1.2-0.9,1.7-1.7h1c-0.5,1-1,1.8-1.7,2.5c-0.6,0.7-1.3,1.2-2,1.7c-0.7,0.4-1.4,0.7-2.1,0.9s-1.3,0.3-1.8,0.3
			c-0.6,0-1.1-0.1-1.6-0.3c-0.5-0.2-0.9-0.5-1.2-0.9c-0.3-0.4-0.5-1.1-0.5-1.9c0-0.8,0.2-1.8,0.7-3.1l8.7-22.8h5.5
			c-1.4,3.8-2.8,7.3-3.9,10.4c-0.5,1.3-1,2.7-1.5,4c-0.5,1.3-1,2.6-1.4,3.7c-0.4,1.1-0.8,2.1-1.1,2.9C91.7,27.4,91.4,28,91.3,28.3z"
			/>
		<path id="XMLID_15_" class="st0" d="M88.2,35c-0.6,0-1.2-0.1-1.8-0.3c-0.6-0.2-1.1-0.6-1.5-1.1c-0.4-0.5-0.5-1.3-0.5-2.2
			c0-0.9,0.2-2,0.8-3.3L94.1,5h6.6l-0.3,0.7c-1.4,3.8-2.8,7.3-3.9,10.4c-0.5,1.3-1,2.7-1.5,4l-2.5,6.6c-0.3,0.8-0.5,1.4-0.6,1.7l0,0
			c-0.6,1.6-0.5,1.9-0.5,2c0.1,0.2,0.2,0.2,0.3,0.3c0.3,0.1,0.8,0,1.3-0.3c0.6-0.3,1.1-0.8,1.5-1.5l0.1-0.2h2.1l-0.4,0.7
			c-0.5,1-1.1,1.9-1.8,2.6c-0.7,0.7-1.4,1.3-2.1,1.8c-0.7,0.5-1.5,0.8-2.2,1C89.5,34.9,88.8,35,88.2,35z M94.7,6l-8.6,22.4
			c-0.5,1.2-0.7,2.2-0.7,2.9c0,0.7,0.1,1.2,0.4,1.6c0.2,0.4,0.6,0.6,1,0.7c0.9,0.3,1.8,0.3,3.1,0c0.6-0.2,1.3-0.5,1.9-0.9
			c0.7-0.4,1.3-0.9,1.9-1.6c0.2-0.2,0.4-0.4,0.6-0.7c-0.3,0.3-0.6,0.5-1,0.7c-0.8,0.4-1.4,0.5-2,0.4c-0.5-0.1-0.8-0.4-1-0.9
			c-0.1-0.3-0.2-0.9,0.5-2.7c0.1-0.3,0.3-0.9,0.6-1.7l2.5-6.6c0.5-1.4,1-2.7,1.5-4c1.1-2.9,2.3-6.2,3.7-9.7H94.7z"/>
	</g>
	<g id="XMLID_113_">
		<path id="XMLID_16_" class="st0" d="M114.1,16.9c-0.6,1.7-1.2,3.3-1.8,4.8c-0.5,1.3-1,2.5-1.4,3.8c-0.5,1.3-0.8,2.2-1.1,2.8
			c-0.5,1.2-0.7,2-0.5,2.3c0.1,0.3,0.3,0.5,0.7,0.6c0.4,0.1,1,0,1.7-0.4c0.7-0.3,1.3-0.9,1.8-1.7h0.8c-0.5,1-1,1.8-1.7,2.5
			c-0.6,0.7-1.3,1.2-2,1.7c-0.7,0.4-1.4,0.7-2.1,0.9c-0.7,0.2-1.3,0.3-1.8,0.3c-0.7,0-1.4-0.2-2.1-0.5c-0.6-0.3-1-1-1.1-2
			c-0.8,0.7-1.8,1.3-3,1.8c-1.1,0.5-2.2,0.7-3.3,0.7c-0.8,0-1.4-0.2-1.9-0.6c-0.5-0.4-0.8-1-1-1.8c-0.1-0.8,0-1.8,0.3-3.1
			c0.3-1.2,1-2.7,1.9-4.3c0.9-1.7,2.1-3.1,3.6-4.3c1.4-1.2,3-2.1,4.6-2.8c1.6-0.7,3.3-1.1,4.9-1.2C111.3,16.2,112.7,16.4,114.1,16.9
			z M103.7,29.8c0.1-0.5,0.3-1,0.5-1.6l3.6-9.4c-0.2-0.1-0.5-0.1-0.7-0.1c-0.6,0-1.3,0.3-2,0.9c-0.7,0.6-1.3,1.3-1.9,2.2
			c-0.6,0.9-1.2,1.9-1.7,2.9c-0.5,1-0.9,2-1.1,2.9c-0.2,0.9-0.3,1.7-0.2,2.2c0.1,0.6,0.4,0.9,0.9,0.9c0.4,0,0.8-0.1,1.3-0.4
			C103,30.2,103.4,30,103.7,29.8z"/>
		<path id="XMLID_108_" class="st0" d="M106.7,35c-0.8,0-1.6-0.2-2.3-0.6c-0.6-0.3-1-0.8-1.2-1.6c-0.7,0.5-1.5,1-2.4,1.3
			c-1.2,0.5-2.4,0.8-3.5,0.8c-0.9,0-1.6-0.2-2.2-0.7c-0.6-0.5-1-1.2-1.2-2.1c-0.1-0.9,0-2,0.3-3.3c0.4-1.3,1-2.8,1.9-4.4
			c0.9-1.7,2.2-3.2,3.7-4.4c1.5-1.2,3.1-2.2,4.7-2.9c1.7-0.7,3.4-1.1,5-1.2c1.7-0.1,3.3,0.1,4.6,0.6l0.5,0.2l-0.2,0.5
			c-0.6,1.7-1.2,3.3-1.8,4.8c-0.5,1.3-1,2.5-1.4,3.8c-0.5,1.3-0.8,2.2-1.1,2.8c-0.6,1.6-0.6,1.9-0.5,2c0.1,0.2,0.2,0.2,0.3,0.3
			c0.2,0,0.7,0,1.4-0.3c0.6-0.3,1.1-0.8,1.6-1.5l0.1-0.2h1.9l-0.4,0.7c-0.5,1-1.1,1.9-1.8,2.6c-0.7,0.7-1.4,1.3-2.1,1.8
			c-0.7,0.4-1.5,0.8-2.2,1C107.9,34.9,107.2,35,106.7,35z M103.9,30.9l0.1,1c0.1,0.8,0.3,1.4,0.8,1.6c1,0.5,2,0.6,3.5,0.2
			c0.6-0.2,1.3-0.5,1.9-0.9c0.7-0.4,1.3-0.9,1.9-1.6c0.1-0.1,0.2-0.3,0.4-0.4c-0.2,0.2-0.5,0.3-0.7,0.4c-0.8,0.4-1.5,0.5-2,0.4
			c-0.5-0.1-0.8-0.4-1-0.9c-0.1-0.3-0.2-0.9,0.5-2.7c0.2-0.6,0.6-1.6,1.1-2.8c0.5-1.3,1-2.5,1.4-3.8c0.5-1.3,1-2.8,1.6-4.3
			c-1.1-0.3-2.4-0.4-3.7-0.3c-1.6,0.1-3.2,0.5-4.7,1.2c-1.6,0.6-3.1,1.6-4.5,2.7c-1.4,1.1-2.5,2.5-3.4,4.2c-0.9,1.6-1.5,3-1.9,4.2
			c-0.3,1.2-0.4,2.1-0.3,2.9c0.1,0.7,0.4,1.2,0.8,1.5c0.4,0.3,1,0.5,1.6,0.5c1,0,2.1-0.2,3.1-0.7c1.1-0.5,2-1,2.8-1.7L103.9,30.9z
			 M101.2,31.3c-0.8,0-1.3-0.5-1.4-1.3c-0.1-0.7-0.1-1.5,0.2-2.4c0.2-0.9,0.6-1.9,1.1-3c0.5-1,1.1-2,1.7-3c0.6-0.9,1.3-1.7,2-2.3
			c1.1-0.9,2.1-1.2,3.2-0.9l0.5,0.1l-3.8,9.9c-0.2,0.6-0.4,1.1-0.5,1.5l-0.1,0.2l-0.2,0.1c-0.3,0.2-0.7,0.4-1.2,0.7
			C102.2,31.2,101.6,31.3,101.2,31.3z M107.1,19.3c-0.5,0-1.1,0.3-1.7,0.8c-0.6,0.6-1.3,1.3-1.8,2.1c-0.6,0.9-1.1,1.8-1.6,2.8
			c-0.5,1-0.8,1.9-1,2.8c-0.2,0.8-0.3,1.5-0.2,2c0.1,0.4,0.2,0.5,0.4,0.5c0.3,0,0.7-0.1,1.1-0.3c0.4-0.2,0.7-0.4,1-0.5
			c0.1-0.4,0.3-0.9,0.5-1.4L107.1,19.3C107.1,19.3,107.1,19.3,107.1,19.3z"/>
	</g>
	<g id="XMLID_106_">
		<path id="XMLID_18_" class="st0" d="M129.2,16.7c-0.2,1.1-0.3,2,0,2.7c0.2,0.6,0.6,1.1,1.1,1.3c0.5,0.3,1,0.4,1.7,0.3
			c0.6,0,1.3-0.2,1.9-0.4c-1.1,1-2.1,1.8-3.1,2.4c-1,0.6-2,1-2.8,1.1c-0.4,1.2-1,2.5-1.7,3.7c-0.7,1.2-1.5,2.3-2.4,3.3
			c-0.9,1-1.9,1.8-3,2.4c-1.1,0.6-2.3,0.9-3.6,0.9c-1.3,0-2.3-0.2-3-0.5c-0.6-0.4-1-0.9-1.2-1.6c-0.2-0.7-0.1-1.5,0.2-2.5
			c0.3-1,0.6-2.1,1.1-3.3l8.1-21h5.4c-1.3,3.5-2.5,6.6-3.6,9.6c-0.5,1.2-1,2.5-1.4,3.7c-0.5,1.2-0.9,2.4-1.3,3.4
			c-0.4,1-0.8,2-1.1,2.7c-0.3,0.8-0.5,1.3-0.7,1.6c-0.3,0.8-0.6,1.5-0.8,2.1c-0.3,0.7-0.5,1.2-0.6,1.7c-0.1,0.5-0.1,0.9,0,1.2
			c0.1,0.3,0.5,0.5,1,0.5c0.6,0,1.2-0.2,1.9-0.7c0.7-0.5,1.3-1.1,1.9-1.8c0.6-0.7,1.2-1.6,1.7-2.5c0.5-1,0.9-1.9,1.2-2.9
			c-0.8-0.2-1.5-0.7-1.9-1.4c-0.4-0.7-0.6-1.7-0.5-3L129.2,16.7z"/>
		<path id="XMLID_20_" class="st0" d="M117,35c-1.4,0-2.5-0.2-3.2-0.6c-0.8-0.4-1.3-1.1-1.4-1.9c-0.2-0.8-0.1-1.7,0.2-2.7
			c0.3-1,0.6-2.1,1.1-3.4L121.9,5h6.5l-0.3,0.7c-1.3,3.5-2.5,6.6-3.6,9.6c-0.5,1.2-1,2.5-1.4,3.7c-0.1,0.2-0.1,0.3-0.2,0.5l7-3.7
			l-0.2,1c-0.2,1-0.2,1.9,0,2.4c0.2,0.5,0.4,0.9,0.8,1.1c0.4,0.2,0.9,0.3,1.4,0.3c0.6,0,1.2-0.2,1.7-0.4l2.3-0.9l-1.8,1.7
			c-1.1,1-2.2,1.9-3.2,2.4c-0.9,0.5-1.9,0.9-2.7,1.1c-0.4,1.2-1,2.4-1.7,3.5c-0.7,1.2-1.6,2.4-2.5,3.4c-0.9,1-2,1.9-3.2,2.5
			C119.7,34.6,118.4,35,117,35z M122.6,6l-8,20.7c-0.4,1.2-0.8,2.3-1,3.3c-0.2,0.9-0.3,1.7-0.1,2.3c0.1,0.5,0.4,1,1,1.3
			c0.6,0.3,1.5,0.5,2.7,0.5c1.2,0,2.3-0.3,3.4-0.9c1.1-0.6,2.1-1.4,2.9-2.3c0.9-1,1.7-2.1,2.4-3.2c0.7-1.2,1.3-2.4,1.7-3.6l0.1-0.3
			l0.3-0.1c0.8-0.2,1.7-0.5,2.7-1.1c0.5-0.3,1-0.6,1.6-1c0,0,0,0,0,0c-0.7,0.1-1.4-0.1-2-0.4c-0.6-0.3-1-0.9-1.3-1.6
			c-0.2-0.5-0.2-1.1-0.2-1.9l-4.8,2.5c0,1,0.1,1.8,0.5,2.4c0.4,0.6,0.9,1,1.6,1.2l0.5,0.1l-0.2,0.5c-0.3,1-0.8,2-1.3,3
			c-0.5,1-1.1,1.9-1.7,2.6c-0.6,0.8-1.3,1.4-2,1.9c-0.7,0.5-1.5,0.8-2.2,0.8c-1,0-1.4-0.4-1.5-0.8c-0.2-0.4-0.2-0.9,0-1.5
			c0.1-0.5,0.3-1.1,0.6-1.8c0.3-0.7,0.6-1.4,0.8-2.1l0.7-1.6c0.3-0.8,0.7-1.7,1.1-2.7s0.9-2.2,1.3-3.4c0.5-1.2,0.9-2.5,1.4-3.7
			c1-2.7,2.1-5.7,3.4-8.9H122.6z M122.8,19.7c-0.4,1-0.7,1.9-1.1,2.7c-0.4,1-0.8,2-1.1,2.7l-0.7,1.6c-0.3,0.7-0.6,1.5-0.8,2.1
			c-0.3,0.6-0.5,1.2-0.6,1.7c-0.1,0.4-0.1,0.7,0,0.9c0,0.1,0.2,0.1,0.6,0.1c0.5,0,1-0.2,1.6-0.6c0.6-0.4,1.2-1,1.8-1.7
			c0.6-0.7,1.1-1.5,1.6-2.4c0.4-0.8,0.8-1.6,1-2.3c-0.7-0.3-1.3-0.8-1.7-1.4C122.9,22.2,122.7,21.1,122.8,19.7L122.8,19.7z"/>
	</g>
	<g id="XMLID_102_">
		<path id="XMLID_21_" class="st0" d="M134.2,28.3c-0.2,0.6-0.4,1.1-0.5,1.5c-0.1,0.4-0.1,0.7,0,0.9c0.1,0.2,0.2,0.3,0.3,0.4
			c0.1,0.1,0.3,0.1,0.5,0.2c0.4,0.1,0.9,0,1.6-0.4c0.7-0.3,1.3-0.9,1.8-1.7h0.8c-0.5,1-1,1.8-1.7,2.5c-0.6,0.7-1.3,1.2-2,1.7
			c-0.7,0.4-1.4,0.7-2.1,0.9c-0.7,0.2-1.3,0.3-1.9,0.3c-0.5,0-1-0.1-1.5-0.3c-0.5-0.2-0.9-0.5-1.2-0.9c-0.3-0.4-0.4-1.1-0.4-1.9
			c0-0.8,0.3-1.8,0.8-3.1l4.6-11.8h5.4c-0.7,1.8-1.3,3.4-1.9,5c-0.5,1.3-1,2.6-1.5,4C134.8,26.7,134.5,27.6,134.2,28.3z M142.2,9.7
			c0,0.8-0.4,1.5-1.1,2c-0.7,0.6-1.6,0.9-2.5,0.9c-1,0-1.9-0.3-2.6-0.9c-0.7-0.6-1.1-1.3-1.1-2c0-0.8,0.4-1.5,1.1-2
			c0.7-0.5,1.6-0.8,2.6-0.8c1,0,1.8,0.3,2.5,0.8C141.8,8.2,142.2,8.9,142.2,9.7z"/>
		<path id="XMLID_97_" class="st0" d="M131.1,35c-0.6,0-1.1-0.1-1.7-0.3c-0.6-0.2-1.1-0.6-1.4-1.1c-0.4-0.5-0.5-1.3-0.5-2.2
			c0-0.9,0.3-2,0.8-3.3L133,16h6.5l-0.3,0.7c-0.7,1.8-1.3,3.4-1.9,5c-0.5,1.3-1,2.6-1.5,3.9c-0.5,1.3-0.9,2.3-1.1,2.9l0,0
			c-0.2,0.6-0.4,1-0.5,1.4c-0.1,0.4-0.1,0.6,0,0.6c0,0.1,0.1,0.1,0.1,0.1c0.1,0.1,0.2,0.1,0.3,0.1c0.1,0,0.5,0.1,1.3-0.3
			c0.6-0.3,1.1-0.8,1.6-1.5l0.1-0.2h1.9l-0.4,0.7c-0.5,1-1.1,1.9-1.8,2.6c-0.7,0.7-1.4,1.3-2.1,1.7c-0.7,0.5-1.5,0.8-2.2,1
			C132.4,34.9,131.7,35,131.1,35z M133.7,17l-4.5,11.5c-0.5,1.2-0.7,2.2-0.7,2.9c0,0.7,0.1,1.2,0.3,1.6c0.2,0.4,0.5,0.6,0.9,0.7
			c0.9,0.3,1.9,0.3,3.1,0c0.6-0.2,1.3-0.5,1.9-0.9c0.6-0.4,1.3-0.9,1.9-1.6c0.1-0.1,0.2-0.3,0.4-0.4c-0.2,0.2-0.5,0.3-0.7,0.4
			c-0.8,0.4-1.5,0.5-1.9,0.4c-0.2,0-0.4-0.1-0.6-0.2c-0.3-0.1-0.4-0.4-0.5-0.7c-0.1-0.3-0.1-0.7,0-1.1c0.1-0.4,0.3-0.9,0.5-1.5
			c0.2-0.6,0.6-1.6,1.1-2.9c0.5-1.3,1-2.6,1.5-4c0.5-1.3,1.1-2.7,1.7-4.3H133.7z M138.6,13.1c-1.2,0-2.1-0.3-2.9-1
			c-0.8-0.7-1.2-1.5-1.2-2.4c0-1,0.4-1.8,1.3-2.4c0.8-0.6,1.8-0.9,2.9-0.9c1.1,0,2,0.3,2.8,0.9c0.9,0.6,1.3,1.5,1.3,2.4
			c0,1-0.4,1.8-1.3,2.4C140.6,12.8,139.6,13.1,138.6,13.1z M138.6,7.4c-0.9,0-1.7,0.2-2.3,0.7c-0.6,0.4-0.9,1-0.9,1.6
			c0,0.6,0.3,1.2,0.9,1.7c0.6,0.5,1.4,0.7,2.3,0.7c0.9,0,1.6-0.2,2.2-0.7c0.6-0.5,0.9-1,0.9-1.7c0-0.7-0.3-1.2-0.9-1.6
			C140.2,7.6,139.4,7.4,138.6,7.4z"/>
	</g>
	<g id="XMLID_96_">
		<path id="XMLID_88_" class="st0" d="M151.1,16.5c1.3,0,2.3,0.3,3,0.9c0.6,0.6,1,1.3,1,2.2c0,0.9-0.2,1.8-0.8,2.8
			c-0.5,1-1.3,1.9-2.3,2.8c-1,0.8-2.2,1.5-3.6,2c-1.4,0.5-2.9,0.7-4.6,0.5c-0.1,1.2,0,2.2,0.4,3c0.4,0.8,1.1,1.2,2.2,1.2
			c1.3,0,2.6-0.3,3.8-1c1.2-0.7,2.2-1.4,3.2-2.2c1-1,2-2,2.9-3.2h1c-1,1.7-2.1,3.2-3.4,4.4c-0.6,0.6-1.2,1.1-1.9,1.6
			c-0.7,0.5-1.4,1-2.2,1.4c-0.8,0.4-1.7,0.7-2.6,1c-0.9,0.3-1.9,0.4-2.9,0.4c-1.9,0-3.3-0.4-4.4-1.3c-1-0.9-1.6-2-1.9-3.3
			c-0.2-1.3-0.1-2.8,0.4-4.3c0.5-1.6,1.3-3,2.4-4.3c1.1-1.3,2.6-2.4,4.3-3.3C146.8,16.9,148.8,16.5,151.1,16.5z M149.8,17.8
			c-0.5,0-1.1,0.3-1.7,0.8c-0.6,0.5-1.1,1.2-1.7,2c-0.5,0.8-1,1.7-1.4,2.7c-0.4,1-0.8,2-1,2.9c0.7,0.2,1.4,0.1,2-0.2
			c0.7-0.3,1.3-0.8,1.8-1.4c0.6-0.6,1.1-1.3,1.5-2.1c0.4-0.8,0.7-1.5,0.9-2.2c0.2-0.7,0.2-1.3,0.2-1.7
			C150.4,18,150.2,17.8,149.8,17.8z"/>
		<path id="XMLID_91_" class="st0" d="M144.2,34.9c-2,0-3.6-0.5-4.7-1.5c-1.1-1-1.8-2.2-2-3.6c-0.2-1.4-0.1-2.9,0.4-4.5
			c0.5-1.6,1.4-3.1,2.5-4.5c1.2-1.4,2.7-2.5,4.5-3.4c1.8-0.9,3.9-1.4,6.2-1.4c1.5,0,2.6,0.3,3.3,1c0.7,0.7,1.1,1.6,1.2,2.6
			c0,1-0.3,2-0.8,3.1c-0.6,1.1-1.4,2.1-2.4,2.9c-1,0.9-2.3,1.6-3.7,2.1c-1.3,0.5-2.8,0.7-4.3,0.6c0,0.9,0.1,1.7,0.4,2.3
			c0.2,0.4,0.6,0.9,1.8,0.9c1.2,0,2.4-0.3,3.5-0.9c1.1-0.6,2.2-1.4,3.1-2.1c1-0.9,2-2,2.8-3.2L156,25h2.1l-0.4,0.7
			c-1,1.7-2.2,3.2-3.5,4.5c-0.6,0.6-1.2,1.1-1.9,1.7c-0.7,0.5-1.5,1-2.3,1.5c-0.8,0.4-1.7,0.8-2.7,1
			C146.2,34.7,145.2,34.9,144.2,34.9z M151.1,17c-2.2,0-4.1,0.4-5.7,1.3c-1.7,0.9-3.1,1.9-4.2,3.2c-1.1,1.3-1.9,2.6-2.3,4.1
			c-0.5,1.5-0.6,2.8-0.4,4.1c0.2,1.2,0.8,2.2,1.7,3c0.9,0.8,2.3,1.2,4,1.2c1,0,1.9-0.1,2.8-0.4c0.9-0.2,1.7-0.6,2.5-1
			c0.8-0.4,1.5-0.9,2.2-1.4c0.7-0.5,1.3-1,1.8-1.6c0.7-0.7,1.3-1.4,1.9-2.1c-0.5,0.6-1.1,1.1-1.6,1.7c-1,0.9-2,1.6-3.3,2.3
			c-1.3,0.7-2.6,1-4,1c-1.7,0-2.4-0.8-2.7-1.5c-0.4-0.9-0.5-2-0.4-3.3l0-0.5l0.5,0c1.6,0.1,3.1,0,4.4-0.5c1.3-0.5,2.5-1.1,3.4-1.9
			c0.9-0.8,1.6-1.7,2.1-2.6c0.5-0.9,0.7-1.8,0.7-2.6c0-0.7-0.3-1.3-0.8-1.9C153.1,17.2,152.2,17,151.1,17z M144.8,26.7
			c-0.3,0-0.6,0-0.9-0.1l-0.5-0.1l0.1-0.5c0.2-1,0.6-2,1-3c0.4-1,0.9-1.9,1.5-2.7c0.5-0.8,1.1-1.5,1.7-2.1c0.7-0.6,1.3-0.9,2-0.9
			c0.7,0,1.1,0.4,1.2,1.1c0.1,0.5,0,1.2-0.2,1.9c-0.2,0.7-0.5,1.5-1,2.3c-0.4,0.8-1,1.5-1.5,2.2c-0.6,0.7-1.3,1.2-2,1.5
			C145.8,26.6,145.3,26.7,144.8,26.7z M144.7,25.7c0.4,0,0.8-0.1,1.2-0.3c0.6-0.3,1.2-0.7,1.7-1.3c0.5-0.6,1-1.3,1.4-2
			c0.4-0.7,0.7-1.4,0.9-2.1c0.2-0.6,0.2-1.1,0.2-1.5c0-0.3-0.1-0.3-0.2-0.3c-0.4,0-0.8,0.2-1.3,0.6c-0.5,0.5-1.1,1.1-1.6,1.8
			c-0.5,0.8-1,1.6-1.4,2.6C145.2,24.2,144.9,24.9,144.7,25.7z"/>
	</g>
</g>
</svg>
