<?xml version="1.0" encoding="utf-8"?>
<!-- Generator: Adobe Illustrator 19.0.0, SVG Export Plug-In . SVG Version: 6.00 Build 0)  -->
<svg version="1.1" id="Layer_1" xmlns="http://www.w3.org/2000/svg" xmlns:xlink="http://www.w3.org/1999/xlink" x="0px" y="0px"
	 viewBox="0 0 40.1 40.1" style="enable-background:new 0 0 40.1 40.1;" xml:space="preserve">
<style type="text/css">
	.st0{fill:#FFFFFF;}
</style>
<path id="XMLID_3_" class="st0" d="M34.9,9.5l-1.2-3.9c-0.2-0.7-0.8-1.1-1.5-1.1h-0.9l-1-3.4C30.1,0.5,29.5,0,28.8,0H11.3
	C10.6,0,10,0.5,9.8,1.1l-1,3.4H7.9c-0.7,0-1.3,0.4-1.5,1.1L5.2,9.5c-0.2,0.5-0.1,1,0.2,1.4c0.3,0.4,0.8,0.6,1.3,0.6h0.7l0.6,6.2
	c-0.2,0.1-0.3,0.1-0.4,0.3c-0.2,0.2-0.3,0.5-0.3,0.8l1.1,11.8c0,0.5,0.4,0.8,0.8,0.9l0.7,7.2c0.1,0.8,0.8,1.4,1.6,1.4h17.1
	c0.8,0,1.5-0.6,1.6-1.4l0.7-7.2c0.4-0.1,0.8-0.4,0.8-0.9l1.1-11.8c0-0.3-0.1-0.6-0.3-0.8c-0.1-0.1-0.3-0.2-0.4-0.3l0.6-6.2h0.7
	c0.5,0,1-0.2,1.3-0.6C35,10.5,35.1,10,34.9,9.5z M8.7,7.2h22.7l0.5,1.7H8.2L8.7,7.2z M12.1,2.7H28l0.5,1.8H11.6L12.1,2.7z
	 M12.5,37.4l-0.6-5.9h16.2l-0.6,5.9H12.5z M29.5,17.7H10.6L10,11.6h20L29.5,17.7z"/>
</svg>
