<?xml version="1.0" encoding="utf-8"?>
<!-- Generator: Adobe Illustrator 19.0.0, SVG Export Plug-In . SVG Version: 6.00 Build 0)  -->
<svg version="1.1" id="Layer_1" xmlns="http://www.w3.org/2000/svg" xmlns:xlink="http://www.w3.org/1999/xlink" x="0px" y="0px"
	 viewBox="0 0 40.1 40.1" style="enable-background:new 0 0 40.1 40.1;" xml:space="preserve">
<style type="text/css">
	.st0{fill:#FFFFFF;}
</style>
<g id="XMLID_10_">
	<g id="XMLID_23_">
		<path id="XMLID_8_" class="st0" d="M23.8,9.2c0.6-0.3,1.2-0.5,1.8-0.8c0.6-0.2,1.3-0.4,2-0.6c0.7-0.2,1.3-0.4,2-0.5
			c0.7-0.1,1.4-0.3,2-0.4c0.7-0.1,1.4-0.2,2-0.3c0.7-0.1,1.3-0.1,2-0.1c0.5,0,1.1,0,1.6-0.1c0.4,0,0.8-0.3,0.9-0.7
			c0.1-0.5-0.1-1-0.6-1.1c-0.4-0.1-0.8,0-1.2,0.1c-0.6,0.1-1.2,0.2-1.8,0.3c0,0,0,0,0,0c-0.2,0-0.1,0,0,0c-0.7,0.1-1.3,0.3-1.9,0.4
			c-0.7,0.2-1.3,0.4-2,0.5c-1.3,0.4-2.6,0.9-3.9,1.4c-0.9,0.4-1.7,0.8-2.5,1.3c-0.4,0.2-0.8,0.5-1.1,0.7c-0.3,0.2-0.5,0.4-0.8,0.6
			c0,0,0,0,0.1,0C22.9,9.7,23.4,9.4,23.8,9.2z"/>
		<path id="XMLID_7_" class="st0" d="M22.4,8.9c0.5-0.4,1.1-0.8,1.7-1.2c1-0.6,2-1.2,3.1-1.7c1.3-0.6,2.6-1,3.9-1.4
			c1.1-0.3,2.3-0.6,3.5-0.8c0.5-0.1,0.8-0.5,0.8-0.9c0-0.5-0.4-0.9-0.9-1c-0.2,0-0.3,0-0.5,0.1c-0.3,0.1-0.5,0.2-0.8,0.3
			c-0.6,0.2-1.2,0.4-1.9,0.7c-1.3,0.5-2.6,1.1-3.8,1.8c-1,0.6-2,1.2-2.9,1.9c-0.7,0.6-1.4,1.1-2.1,1.8c-0.3,0.3-0.6,0.6-0.9,0.9
			c-0.2,0.3-0.5,0.5-0.7,0.8c0,0,0.1-0.1,0.1-0.1C21.5,9.6,21.9,9.2,22.4,8.9z"/>
		<path id="XMLID_6_" class="st0" d="M16.3,9c-0.6-0.4-1.2-0.7-1.8-1c-0.6-0.3-1.2-0.6-1.9-0.9c-0.6-0.3-1.3-0.5-1.9-0.7
			c-0.7-0.2-1.3-0.4-2-0.6c-0.7-0.2-1.3-0.4-2-0.5C5.6,4.9,4.3,4.8,3.1,4.6c-0.2,0-0.4-0.1-0.6,0C2.2,4.7,2,4.9,1.9,5.2
			C1.7,5.8,2.1,6.4,2.7,6.4c0.5,0,0.9,0,1.4,0.1c0.7,0,1.3,0.1,2,0.1c0.7,0.1,1.4,0.1,2,0.2c0.7,0.1,1.4,0.2,2,0.4
			c1.4,0.3,2.7,0.6,4,1.1c0.6,0.2,1.2,0.5,1.8,0.8c0.5,0.2,1,0.5,1.5,0.8c0,0,0,0,0.1,0C17.2,9.6,16.8,9.3,16.3,9z"/>
		<path id="XMLID_5_" class="st0" d="M5.5,3.9c1.1,0.2,2.2,0.4,3.3,0.7C10.1,5,11.4,5.4,12.7,6c0.6,0.3,1.3,0.6,1.9,0.9
			c0.4,0.2,0.8,0.5,1.2,0.7C16.9,8.3,18,9,18.9,10c0.1,0.1,0.2,0.2,0.2,0.2c-0.3-0.5-0.7-0.9-1.1-1.3c-0.5-0.5-1-0.9-1.5-1.4
			c-0.9-0.7-1.8-1.4-2.7-2c-1.2-0.8-2.4-1.4-3.7-2C9.4,3.3,8.8,3,8.1,2.8C7.5,2.5,6.9,2.3,6.3,2.1C6.1,2.1,5.9,2,5.7,2
			C5.4,2,5,2.1,4.9,2.4C4.5,2.9,4.8,3.7,5.5,3.9z"/>
		<g id="XMLID_27_">
			<path id="XMLID_4_" class="st0" d="M39.1,8c-0.4,0-0.8,0-1.2,0c-5.1,0-10.2,1-13.5,1.8v27.6c3.2-1.4,8.9-3.5,14.8-4.4
				c0.5-0.1,0.8-0.5,0.8-0.9V9C40.1,8.4,39.7,8,39.1,8z"/>
		</g>
		<path id="XMLID_3_" class="st0" d="M22.8,9.9c-1,0.5-1.9,0.7-2.8,0.7c-0.9,0-1.8-0.2-2.8-0.7L17,9.8c0,0,0,0,0,0
			c0,5,0,13.1,0,18.4l0,9.2c0,0.1,0.7,0.9,3,0.9c2.3,0,3-0.7,3-0.9V9.8c0,0,0,0,0,0L22.8,9.9z"/>
		<g id="XMLID_24_">
			<path id="XMLID_2_" class="st0" d="M0.9,8C0.4,8,0,8.4,0,9v23.1c0,0.5,0.3,0.9,0.8,0.9c6,0.9,11.6,3,14.8,4.4l0-8.6
				c0-6.1,0-13.2,0-19C12.3,9,7.2,8,2.1,8C1.7,8,1.3,8,0.9,8z"/>
		</g>
	</g>
</g>
</svg>
