<?xml version="1.0" encoding="utf-8"?>
<!-- Generator: Adobe Illustrator 19.0.0, SVG Export Plug-In . SVG Version: 6.00 Build 0)  -->
<svg version="1.1" id="Layer_1" xmlns="http://www.w3.org/2000/svg" xmlns:xlink="http://www.w3.org/1999/xlink" x="0px" y="0px"
	 viewBox="0 0 40.1 40.1" style="enable-background:new 0 0 40.1 40.1;" xml:space="preserve">
<style type="text/css">
	.st0{fill:#FFFFFF;}
</style>
<g id="XMLID_3_">
	<path id="XMLID_4_" class="st0" d="M36.5,9.8c-0.3-3.2-0.8-5.7-1.7-6.6c-3.4-4-27.1-4.3-29.8,0C4.3,4.2,3.9,6.6,3.6,9.8
		c-1,0.1-1.8,1-1.8,2v3.9c0,0.9,0.5,1.6,1.3,1.9c-0.2,6.1,0,12.6,0.2,15.7c0,2.5,1.7,2.1,1.7,2.1h1.6V38c0,1.1,1.1,1.9,2.4,1.9
		c1.3,0,2.4-0.9,2.4-1.9v-2.7h18V38c0,1.1,1.1,1.9,2.4,1.9c1.3,0,2.4-0.9,2.4-1.9v-2.7h0.5c0,0,1.9,0.3,2.1-0.9
		c0-3.2,0.2-10.2,0-16.9c0.8-0.3,1.4-1,1.4-1.9v-3.9C38.3,10.7,37.5,9.8,36.5,9.8z M10.8,3.7H29v2.8H10.8V3.7z M11,32.2
		c-1.4,0-2.6-1.2-2.6-2.6c0-1.4,1.2-2.6,2.6-2.6s2.6,1.2,2.6,2.6C13.6,31,12.5,32.2,11,32.2z M28.9,32.2c-1.4,0-2.6-1.2-2.6-2.6
		c0-1.4,1.2-2.6,2.6-2.6s2.6,1.2,2.6,2.6C31.5,31,30.3,32.2,28.9,32.2z M32.2,20.9H7.6V8h24.6V20.9z"/>
</g>
</svg>
