<?xml version="1.0" encoding="utf-8"?>
<!-- Generator: Adobe Illustrator 19.0.0, SVG Export Plug-In . SVG Version: 6.00 Build 0)  -->
<svg version="1.1" id="Layer_1" xmlns="http://www.w3.org/2000/svg" xmlns:xlink="http://www.w3.org/1999/xlink" x="0px" y="0px"
	 viewBox="0 0 40.1 40.1" style="enable-background:new 0 0 40.1 40.1;" xml:space="preserve">
<style type="text/css">
	.st0{fill:#FFFFFF;}
</style>
<g id="XMLID_3_">
	<path id="XMLID_4_" class="st0" d="M39.7,29.8c0-2.6-1.6-5.1-4.1-6l-14-5.4l0-1.8c2.7-0.8,4.7-3.2,4.7-6.2c0-3.5-2.9-6.4-6.4-6.4
		c-1.7,0-4.2,1.3-5.5,3.3c-0.3,0.5-0.4,1.1-0.1,1.7c0.3,0.5,0.8,0.9,1.4,0.9h0c0.6,0,1.1-0.3,1.3-0.8c0.6-1,1.8-1.7,2.8-1.7
		c1.7,0,3.1,1.4,3.1,3.1c0,1.7-1.4,3.1-3.1,3.1c0,0,0,0,0,0c-0.4,0-0.8,0.2-1.1,0.4c-0.3,0.3-0.4,0.7-0.4,1.1l0,3.3L4.1,23.8
		c-2.5,0.9-4.1,3.3-4.1,6v1c0,3,2.3,5.5,5.3,5.5h29.2c3,0,5.3-2.6,5.3-5.5L39.7,29.8z M36.5,30.8c0,1.1-0.9,2.2-2,2.2H5.3
		c-1.1,0-2-1.1-2-2.2v-1c0-1.3,0.8-2.4,2-2.9l14.7-5.6l14.6,5.6c1.2,0.4,2,1.6,2,2.9L36.5,30.8L36.5,30.8z"/>
</g>
</svg>
