<?xml version="1.0" encoding="utf-8"?>
<!-- Generator: Adobe Illustrator 19.0.0, SVG Export Plug-In . SVG Version: 6.00 Build 0)  -->
<svg version="1.1" id="Layer_1" xmlns="http://www.w3.org/2000/svg" xmlns:xlink="http://www.w3.org/1999/xlink" x="0px" y="0px"
	 viewBox="0 0 40.1 40.1" style="enable-background:new 0 0 40.1 40.1;" xml:space="preserve">
<style type="text/css">
	.st0{fill:#FFFFFF;}
</style>
<g id="XMLID_3_">
	<g id="XMLID_4_">
		<path id="XMLID_24_" class="st0" d="M33.5,36.4H3.9c-0.3,0-0.5,0.2-0.6,0.5c0,0.3,0.1,0.6,0.4,0.7l8.5,2.5c0.1,0,0.1,0,0.2,0h12.7
			c0.1,0,0.1,0,0.2,0l8.5-2.5c0.3-0.1,0.5-0.4,0.4-0.7C34.1,36.6,33.8,36.4,33.5,36.4z"/>
		<path id="XMLID_8_" class="st0" d="M30.2,17.2l0.2-3.3c0-0.2,0-0.3-0.2-0.4c-0.1-0.1-0.3-0.2-0.4-0.2h-22c-0.2,0-0.3,0.1-0.4,0.2
			c-0.1,0.1-0.2,0.3-0.2,0.4l1.2,20.9c0,0.3,0.3,0.6,0.6,0.6h19.6c0.3,0,0.6-0.2,0.6-0.6l0.2-3.3c0.1,0,0.3,0,0.4,0
			c3.9,0,7-3.2,7-7.2C36.8,20.6,33.8,17.4,30.2,17.2z M11.3,33.4C11.2,33.4,11.2,33.4,11.3,33.4c-0.5,0-0.9-0.4-1-0.8l-1-16.2
			c0-0.5,0.3-0.9,0.8-1c0.5,0,0.9,0.3,1,0.8l1,16.2C12.1,32.9,11.7,33.3,11.3,33.4z M29.8,29.2c-0.1,0-0.2,0-0.3,0l0.5-9.5
			c2.4,0.1,4.3,2.2,4.3,4.8C34.4,27,32.3,29.2,29.8,29.2z"/>
		<path id="XMLID_7_" class="st0" d="M11.6,8.4c0.4,1.8,2.4,2.7,2.6,2.8l0.7-1.7c-0.3-0.1-1.3-0.7-1.5-1.5c-0.1-0.5,0.2-1.2,0.8-1.9
			c1.1-1.2,1.5-2.4,1.3-3.5C15,0.9,13,0.1,12.8,0l-0.6,1.7c0,0,1.3,0.5,1.5,1.4c0.1,0.6-0.4,1.4-0.8,1.9C11.7,6.1,11.3,7.3,11.6,8.4
			z"/>
		<path id="XMLID_6_" class="st0" d="M16.3,8.4c0.4,1.8,2.4,2.7,2.6,2.8l0.7-1.7c-0.3-0.1-1.3-0.7-1.5-1.5c-0.1-0.5,0.2-1.2,0.8-1.9
			C20,5,20.5,3.8,20.2,2.6c-0.4-1.8-2.4-2.6-2.6-2.6L17,1.7c0,0,1.3,0.5,1.5,1.4c0.1,0.6-0.4,1.4-0.8,1.9
			C16.5,6.1,16.1,7.3,16.3,8.4z"/>
		<path id="XMLID_5_" class="st0" d="M21.1,8.4c0.4,1.8,2.4,2.7,2.6,2.8l0.7-1.7c-0.3-0.1-1.3-0.7-1.5-1.5c-0.1-0.5,0.2-1.2,0.8-1.9
			C24.8,5,25.2,3.8,25,2.6c-0.4-1.8-2.4-2.6-2.6-2.6l-0.6,1.7c0,0,1.3,0.5,1.5,1.4c0.2,0.6-0.4,1.4-0.8,1.9
			C21.3,6.1,20.9,7.3,21.1,8.4z"/>
	</g>
</g>
</svg>
