<?xml version="1.0" encoding="utf-8"?>
<!-- Generator: Adobe Illustrator 19.0.0, SVG Export Plug-In . SVG Version: 6.00 Build 0)  -->
<svg version="1.1" id="Layer_1" xmlns="http://www.w3.org/2000/svg" xmlns:xlink="http://www.w3.org/1999/xlink" x="0px" y="0px"
	 viewBox="0 0 20 14" style="enable-background:new 0 0 20 14;" xml:space="preserve">
<style type="text/css">
	.st0{fill:#C5C5C5;}
</style>
<g id="XMLID_4_">
	<path id="XMLID_5_" class="st0" d="M18,0H8.5C8,0,7.4,0.2,7.1,0.5L0.3,6.5c-0.3,0.3-0.3,0.8,0,1.1l6.8,5.9C7.4,13.8,8,14,8.5,14H18
		c1.1,0,2-0.9,2-2V2C20,0.9,19.1,0,18,0z M15.2,11l-2.6-2.6L10.1,11L8.7,9.6L11.2,7L8.7,4.4L10.1,3l2.6,2.6L15.2,3l1.4,1.4L14.1,7
		l2.6,2.6L15.2,11z"/>
</g>
</svg>
