<?xml version="1.0" encoding="utf-8"?>
<!-- Generator: Adobe Illustrator 19.0.0, SVG Export Plug-In . SVG Version: 6.00 Build 0)  -->
<svg version="1.1" id="Layer_1" xmlns="http://www.w3.org/2000/svg" xmlns:xlink="http://www.w3.org/1999/xlink" x="0px" y="0px"
	 viewBox="0 0 40.1 40.1" style="enable-background:new 0 0 40.1 40.1;" xml:space="preserve">
<style type="text/css">
	.st0{fill:#FFFFFF;}
</style>
<g id="XMLID_3_">
	<g id="XMLID_4_">
		<path id="XMLID_6_" class="st0" d="M28.3,0c-2.4,0-4.4,1.9-4.6,4.3l-1.2,17.3c-0.1,0.8,0.2,1.5,0.7,2c0.5,0.6,1.2,0.9,2,0.9h0.1
			l-0.4,13.5c0,0.6,0.2,1.1,0.6,1.5c0.4,0.4,1,0.6,1.5,0.6h1.8c1.2,0,2.2-0.9,2.2-2.1V2.5C30.8,1.1,29.7,0,28.3,0z"/>
		<path id="XMLID_5_" class="st0" d="M18.1,0h-0.2c-0.4,0-0.8,0.3-0.8,0.8v7.6c0,0.7-0.6,1.2-1.2,1.2h-0.2c-0.7,0-1.2-0.6-1.2-1.2
			V0.8c0-0.4-0.3-0.8-0.8-0.8h-0.2c-0.4,0-0.8,0.3-0.8,0.8v7.6c0,0.7-0.6,1.2-1.2,1.2h-0.2c-0.7,0-1.2-0.6-1.2-1.2V0.8
			C10.2,0.3,9.8,0,9.4,0H9.2C8.7,0,8.4,0.3,8.4,0.8v11.5c0,1.4,1.2,2.5,2.6,2.5h0.3l-0.7,23.1c0,0.6,0.2,1.1,0.6,1.5
			c0.4,0.4,1,0.6,1.5,0.6h1.7c0.6,0,1.1-0.2,1.5-0.6c0.4-0.4,0.6-1,0.6-1.5l-0.7-23.1h0.5c1.4,0,2.5-1.1,2.5-2.5V0.8
			C18.9,0.3,18.5,0,18.1,0z"/>
	</g>
</g>
</svg>
