<?xml version="1.0" encoding="utf-8"?>
<!-- Generator: Adobe Illustrator 19.0.0, SVG Export Plug-In . SVG Version: 6.00 Build 0)  -->
<svg version="1.1" id="Layer_1" xmlns="http://www.w3.org/2000/svg" xmlns:xlink="http://www.w3.org/1999/xlink" x="0px" y="0px"
	 viewBox="0 0 40.1 40.1" style="enable-background:new 0 0 40.1 40.1;" xml:space="preserve">
<style type="text/css">
	.st0{fill:#FFFFFF;}
</style>
<g id="Wc8hSq.tif">
	<g id="XMLID_4_">
		<path id="XMLID_45_" class="st0" d="M36.9,8.7c0.8,0,1.5,0,2.3,0c0.7,0,1,0.3,1,0.9c0,1.9,0,3.9,0,5.8c0,0.6-0.3,0.9-0.9,0.9
			c-0.6,0-1.2,0-1.8,0c-0.7,0-1,0.3-1,1c0,3.3,0,6.6,0,9.9c0,1.9,0,3.9,0,5.8c0,1.1-0.1,2.2-0.4,3.3c-0.7,3-3,4.1-5.7,3.8
			c-2.5-0.3-4.1-1.9-4.4-4.7c-0.2-1.6-0.2-3.3-0.2-4.9c0-2.8,0-5.7,0-8.5c0-1.5-0.9-2.5-2.4-2.7c0,0.3,0,0.5,0,0.7
			c0,5.8,0,11.6,0,17.4c0,1.8-0.9,2.7-2.7,2.7c-6,0-11.9,0-17.9,0c-1.7,0-2.6-0.9-2.6-2.6C0,25.9,0,14.2,0,2.6C0,0.9,0.9,0,2.6,0
			c6,0,12.1,0,18.1,0c1.5,0,2.4,1,2.4,2.5c0,4.6,0,9.2,0,13.8c0,0.4,0.1,0.6,0.5,0.7c1.7,0.4,3.2,1.2,3.8,2.9
			c0.3,0.8,0.4,1.7,0.4,2.5c0,3.3,0,6.7,0,10c0,1,0,2,0.2,3c0.4,2,2.4,2.9,4.2,2c1-0.5,1.3-1.5,1.5-2.5c0.1-0.8,0.1-1.7,0.1-2.5
			c0-5,0-10,0-15c0-0.3-0.2-0.5-0.2-0.8c-0.1-0.3-0.3-0.6-0.3-0.9c0-2.6,0-5.2,0-7.7c0-0.2,0.1-0.5,0.2-0.7C34.1,6.1,34.5,5,35,4
			c0.2-0.5,0.5-0.9,1-1.1c0.2-0.1,0.3-0.2,0.4-0.4c0.3-0.6,0.5-1.2,0.7-1.8c0.2-0.6,0.8-0.9,1.3-0.6c0.6,0.2,0.8,0.8,0.5,1.4
			c-0.1,0.4-0.3,0.7-0.4,1.1c-0.2,0.5-0.4,1-0.2,1.6c0.1,0.3,0,0.7-0.1,1.1c-0.3,0.9-0.7,1.8-1.1,2.7C37,8.2,36.9,8.4,36.9,8.7z
			 M11.6,4.2c-2.1,0-4.3,0-6.4,0c-0.6,0-1,0.3-1,1c0,0.4,0,0.7,0,1.1c0,2.3,0,4.6,0,6.9c0,0.9,0.3,1.2,1.2,1.2c4.2,0,8.4,0,12.5,0
			c0.7,0,1-0.3,1-1c0-2.7,0-5.4,0-8.1c0-0.7-0.3-1-1-1C15.8,4.2,13.7,4.2,11.6,4.2z M38.1,14.4c0-1.3,0-2.5,0-3.7
			c-0.4,0-0.8,0-1.2,0c0,1.3,0,2.5,0,3.7C37.3,14.4,37.7,14.4,38.1,14.4z"/>
	</g>
</g>
</svg>
