<?xml version="1.0" encoding="utf-8"?>
<!-- Generator: Adobe Illustrator 19.0.0, SVG Export Plug-In . SVG Version: 6.00 Build 0)  -->
<svg version="1.1" id="Layer_1" xmlns="http://www.w3.org/2000/svg" xmlns:xlink="http://www.w3.org/1999/xlink" x="0px" y="0px"
	 viewBox="0 0 40.1 40.1" style="enable-background:new 0 0 40.1 40.1;" xml:space="preserve">
<style type="text/css">
	.st0{fill:#FFFFFF;}
</style>
<g id="XMLID_5_">
	<g id="XMLID_6_">
		<path id="XMLID_3_" class="st0" d="M20,10.5L5.7,22.3c0,0,0,0,0,0.1c0,0,0,0.1,0,0.1v11.9c0,0.4,0.2,0.8,0.5,1.1
			C6.5,35.8,6.9,36,7.3,36h9.5v-9.6h6.4V36h9.5c0.4,0,0.8-0.2,1.1-0.5c0.3-0.3,0.5-0.7,0.5-1.1V22.5c0-0.1,0-0.1,0-0.1L20,10.5z"/>
		<path id="XMLID_2_" class="st0" d="M39.8,19.6l-5.4-4.5V5c0-0.2-0.1-0.4-0.2-0.6c-0.1-0.1-0.3-0.2-0.6-0.2h-4.8
			c-0.2,0-0.4,0.1-0.6,0.2C28.1,4.5,28,4.7,28,5v4.8l-6.1-5.1c-0.5-0.4-1.2-0.6-1.9-0.6c-0.7,0-1.4,0.2-1.9,0.6L0.3,19.6
			C0.1,19.8,0,19.9,0,20.2c0,0.2,0,0.4,0.2,0.6l1.5,1.8c0.1,0.1,0.3,0.2,0.5,0.3c0.2,0,0.4,0,0.6-0.2L20,8.3l17.2,14.4
			c0.1,0.1,0.3,0.2,0.5,0.2h0.1c0.2,0,0.4-0.1,0.5-0.3l1.5-1.8c0.1-0.2,0.2-0.4,0.2-0.6C40.1,19.9,40,19.8,39.8,19.6z"/>
	</g>
</g>
</svg>
