<?xml version="1.0" encoding="utf-8"?>
<!-- Generator: Adobe Illustrator 19.0.0, SVG Export Plug-In . SVG Version: 6.00 Build 0)  -->
<svg version="1.1" id="Layer_1" xmlns="http://www.w3.org/2000/svg" xmlns:xlink="http://www.w3.org/1999/xlink" x="0px" y="0px"
	 viewBox="0 0 40.1 40.1" style="enable-background:new 0 0 40.1 40.1;" xml:space="preserve">
<style type="text/css">
	.st0{fill:#FFFFFF;}
</style>
<g id="XMLID_2_">
	<g id="money_4">
		<g id="XMLID_3_">
			<path id="XMLID_8_" class="st0" d="M40.1,28.1c0-2.1-1.7-3.9-3.9-3.9c-0.8,0-1.5,0.2-2.1,0.7h0c0,0,0,0,0,0
				c-0.3,0.2-0.5,0.4-0.7,0.6l0,0c-0.8,0.7-2.1,1.9-3,3c-0.2-0.5-0.5-1-0.9-1.4c-3.8-3.4-8.4-4.7-13.7-4.7c-1.7,0-3.4,0.2-4.9,0.5
				c0-0.6-0.1-0.9-0.1-0.9H0.6c0,0-0.4,3.7-0.4,8.4c0,4.6,0.4,8.4,0.4,8.4h10.2c0,0,0.1-1,0.2-2.4c1.5-0.3,3.1,0.1,4.9,1.3
				c2.3,1.5,5.1,2.4,8.1,2.4c3.1,0,5.7-0.9,7.9-2.4l0,0c0,0,0.1,0,0.1-0.1c0.6-0.4,1.2-0.9,1.8-1.5c0.4-0.4,1-1,1.9-1.9
				c3-2.9,3.3-3.5,3.3-3.5s0,0,0,0C39.7,30.1,40.1,29.2,40.1,28.1z M37.7,29.6c-0.5,0.5-2.7,2.8-3.3,3.3c-1.5,1.5-2.3,2.2-2.6,2.6
				l0,0c-0.2,0.2-0.5,0.4-0.7,0.6c-2,1.3-4.4,2.1-7.1,2.1c-2.7,0-5.2-0.8-7.2-2.2h0c-1.7-1.1-3.7-1.7-5.7-1.5
				c0.1-1.4,0.1-2.9,0.1-4.2c0-1.8-0.1-4-0.2-5.7c1.5-0.3,3.1-0.5,4.8-0.5c5.1,0,9.7,1.7,12.5,4.4c0.3,0.4,0.5,0.8,0.5,1.4
				c0,1.1-0.9,2.1-2.1,2.1c0,0-0.1,0-0.1,0l0,0c-1.1,0-2.7-0.5-5.6-1.6l-0.6,1.7c3,1.1,4.9,1.6,6.3,1.7v0c1.7,0,3.2-1.2,3.7-2.8v0
				c0.6-1,2.9-3.1,4.1-4.2l0,0c0,0,0,0,0,0c0.2-0.2,0.4-0.4,0.6-0.5c0.3-0.2,0.5-0.2,1-0.2c1.1,0,2.1,0.9,2.1,2.1
				C38.3,28.7,38.1,29.2,37.7,29.6z"/>
			<path id="XMLID_5_" class="st0" d="M27.6,23.5c6.4,0,11.6-5.2,11.6-11.6S33.9,0.3,27.6,0.3C21.2,0.3,16,5.5,16,11.9
				S21.2,23.5,27.6,23.5z M27.6,2.4c5.3,0,9.6,4.3,9.6,9.6s-4.3,9.6-9.6,9.6c-5.3,0-9.6-4.3-9.6-9.6C18,6.6,22.3,2.4,27.6,2.4z"/>
			<path id="XMLID_4_" class="st0" d="M24.5,11.5c0.2,0.3,0.6,0.6,1.1,0.8c0.5,0.2,1.1,0.4,1.8,0.5c0.2,0,0.4,0.1,0.7,0.1
				c0.2,0.1,0.4,0.1,0.6,0.2c0.2,0.1,0.3,0.2,0.5,0.4c0.1,0.1,0.2,0.3,0.2,0.5c0,0.2-0.1,0.4-0.3,0.5c-0.2,0.1-0.5,0.2-0.9,0.2
				c-0.3,0-0.5,0-0.7-0.1c-0.2,0-0.4-0.1-0.5-0.2c-0.2-0.1-0.3-0.2-0.5-0.3c-0.2-0.1-0.3-0.3-0.5-0.5H24v2.8h1.9v-0.4
				c0.1,0,0.2,0.1,0.3,0.1c0.1,0,0.2,0.1,0.3,0.1v1.1h1.9v-0.9c0.4,0,0.8-0.1,1.1-0.3c0.3-0.1,0.6-0.3,0.9-0.6
				c0.3-0.2,0.4-0.5,0.6-0.8c0.1-0.3,0.2-0.6,0.2-1c0-0.2,0-0.4-0.1-0.7c-0.1-0.3-0.2-0.6-0.5-0.9c-0.2-0.3-0.6-0.6-1.1-0.9
				c-0.5-0.3-1.1-0.5-1.9-0.6c-1.3-0.2-1.9-0.6-1.9-1.2c0-0.2,0.1-0.4,0.3-0.6C26.3,9.1,26.6,9,27,9c0.3,0,0.5,0,0.7,0.1
				c0.2,0,0.4,0.1,0.5,0.2c0.2,0.1,0.3,0.2,0.5,0.3c0.1,0.1,0.3,0.3,0.4,0.5H31V7.2h-1.9v0.4c-0.2-0.1-0.5-0.2-0.8-0.3v-1h-1.9v0.9
				c-0.4,0.1-0.7,0.2-1,0.3S24.9,7.8,24.7,8c-0.2,0.2-0.4,0.5-0.5,0.8c-0.1,0.3-0.2,0.6-0.2,1c0,0.2,0,0.5,0.1,0.8
				C24.1,10.9,24.3,11.2,24.5,11.5z"/>
		</g>
	</g>
</g>
</svg>
