<?xml version="1.0" encoding="utf-8"?>
<!-- Generator: Adobe Illustrator 19.0.0, SVG Export Plug-In . SVG Version: 6.00 Build 0)  -->
<svg version="1.1" id="Layer_1" xmlns="http://www.w3.org/2000/svg" xmlns:xlink="http://www.w3.org/1999/xlink" x="0px" y="0px"
	 viewBox="0 0 40.1 22.5" style="enable-background:new 0 0 40.1 22.5;" xml:space="preserve">
<style type="text/css">
	.st0{fill:#1F6C8E;}
</style>
<g id="XMLID_6_">
	<g id="XMLID_7_">
		<path id="XMLID_4_" class="st0" d="M1.7,3.4h36.7c0.9,0,1.7-0.8,1.7-1.7S39.3,0,38.4,0H1.7C0.8,0,0,0.8,0,1.7S0.8,3.4,1.7,3.4z"/>
		<path id="XMLID_3_" class="st0" d="M1.7,13h36.7c0.9,0,1.7-0.8,1.7-1.7c0-0.9-0.8-1.7-1.7-1.7H1.7C0.8,9.5,0,10.3,0,11.2
			C0,12.2,0.8,13,1.7,13z"/>
		<path id="XMLID_2_" class="st0" d="M1.7,22.5h36.7c0.9,0,1.7-0.8,1.7-1.7S39.3,19,38.4,19H1.7C0.8,19,0,19.8,0,20.8
			S0.8,22.5,1.7,22.5z"/>
	</g>
</g>
</svg>
