<?xml version="1.0" encoding="utf-8"?>
<!-- Generator: Adobe Illustrator 19.0.0, SVG Export Plug-In . SVG Version: 6.00 Build 0)  -->
<svg version="1.1" id="Layer_1" xmlns="http://www.w3.org/2000/svg" xmlns:xlink="http://www.w3.org/1999/xlink" x="0px" y="0px"
	 viewBox="0 0 40.1 40.1" style="enable-background:new 0 0 40.1 40.1;" xml:space="preserve">
<style type="text/css">
	.st0{fill:#FFFFFF;}
</style>
<g id="XMLID_9_">
	<path id="XMLID_27_" class="st0" d="M28.4,16.3c-0.1,0-0.3,0-0.4,0.1l-1.5,0.4L24.9,13c-0.4-1.1-1.7-1.9-2.9-1.9H7.5
		c-1.2,0-2.5,0.9-2.9,1.9l-1.5,3.8l-1.5-0.4c-0.1,0-0.3-0.1-0.4-0.1c-0.7,0-1.2,0.5-1.2,1.3v0.9C0,19.3,0.7,20,1.6,20h0.2l-0.3,0.6
		c-0.4,1-0.7,2.7-0.7,3.8v7.5c0,0.9,0.7,1.6,1.6,1.6h2.1c0.9,0,1.6-0.7,1.6-1.6V30h17.7v1.9c0,0.9,0.7,1.6,1.6,1.6h2.1
		c0.9,0,1.6-0.7,1.6-1.6v-7.5c0-1.1-0.3-2.8-0.7-3.8L27.8,20H28c0.9,0,1.6-0.7,1.6-1.6v-0.9C29.6,16.8,29.1,16.3,28.4,16.3z
		 M4.2,19.2l2.3-5.7c0.3-0.6,1-1.2,1.7-1.2h13c0.7,0,1.5,0.5,1.7,1.2l2.3,5.7c0.3,0.6-0.1,1.2-0.8,1.2H5C4.3,20.3,4,19.8,4.2,19.2z
		 M9.5,26.4c0,0.3-0.3,0.6-0.6,0.6H4.4c-0.3,0-0.6-0.3-0.6-0.6v-2.1c0-0.3,0.3-0.6,0.6-0.6h4.5c0.3,0,0.6,0.3,0.6,0.6V26.4z
		 M25.8,26.4c0,0.3-0.3,0.6-0.6,0.6h-4.5c-0.3,0-0.6-0.3-0.6-0.6v-2.1c0-0.3,0.3-0.6,0.6-0.6h4.5c0.3,0,0.6,0.3,0.6,0.6V26.4z"/>
	<g id="XMLID_10_">
		<path id="XMLID_24_" class="st0" d="M38.1,4.5h-7.5c-1.1,0-2,0.9-2,2v7.5c0,1.1,0.9,2,2,2h3v16.7c0,0.4,0.3,0.7,0.7,0.7
			s0.7-0.3,0.7-0.7V15.9h3c1.1,0,2-0.9,2-2V6.4C40,5.4,39.1,4.5,38.1,4.5z M36.4,10.6c-0.4,0.4-1.1,0.6-1.9,0.6h-1.1
			c-0.1,0-0.2,0.1-0.2,0.2v1.8c0,0.2-0.2,0.4-0.4,0.4H32c-0.2,0-0.4-0.2-0.4-0.4V7c0-0.2,0.2-0.4,0.4-0.4h2.1c1.4,0,1.9,0.2,2.3,0.6
			C36.8,7.6,37,8.2,37,9C37,9.7,36.8,10.3,36.4,10.6z"/>
		<path id="XMLID_2_" class="st0" d="M35.2,8.2C35,8,34.6,8,34.2,8h-0.7c-0.1,0-0.2,0.1-0.2,0.2v1.5c0,0.1,0.1,0.2,0.2,0.2h0.4
			c0.2,0,0.4,0,0.6,0c0.2,0,0.6-0.1,0.8-0.2c0.2-0.1,0.3-0.4,0.3-0.8C35.5,8.6,35.4,8.3,35.2,8.2z"/>
	</g>
</g>
</svg>
