<?xml version="1.0" encoding="utf-8"?>
<!-- Generator: Adobe Illustrator 19.0.0, SVG Export Plug-In . SVG Version: 6.00 Build 0)  -->
<svg version="1.1" id="Layer_1" xmlns="http://www.w3.org/2000/svg" xmlns:xlink="http://www.w3.org/1999/xlink" x="0px" y="0px"
	 viewBox="0 0 22.5 22.5" style="enable-background:new 0 0 22.5 22.5;" xml:space="preserve">
<style type="text/css">
	.st0{fill:#1F6C8E;}
</style>
<g id="Settings">
	<g id="XMLID_6_">
		<path id="XMLID_7_" class="st0" d="M22.4,10c0-0.3-0.4-0.6-0.7-0.6c-1,0-1.9-0.6-2.3-1.5c-0.4-1-0.1-2.1,0.6-2.8
			c0.2-0.2,0.3-0.6,0.1-0.8c-0.5-0.7-1.1-1.3-1.8-1.8c-0.3-0.2-0.6-0.2-0.9,0.1c-0.7,0.7-1.9,1-2.8,0.6c-1-0.4-1.6-1.4-1.5-2.4
			c0-0.3-0.2-0.6-0.6-0.7C11.7,0,10.9,0,10,0.1c-0.3,0-0.6,0.3-0.6,0.6c0,1-0.6,2-1.5,2.4C7,3.5,5.8,3.2,5.1,2.5
			C4.9,2.2,4.5,2.2,4.3,2.4C3.6,2.9,3,3.5,2.5,4.2C2.3,4.5,2.3,4.8,2.5,5.1c0.8,0.7,1,1.8,0.6,2.8C2.8,8.8,1.8,9.4,0.7,9.4
			c-0.4,0-0.6,0.2-0.6,0.6c-0.1,0.8-0.1,1.7,0,2.6c0,0.3,0.4,0.6,0.7,0.6c1,0,1.9,0.6,2.3,1.5c0.4,1,0.1,2.1-0.6,2.8
			c-0.2,0.2-0.3,0.6-0.1,0.8c0.5,0.7,1.1,1.3,1.8,1.8c0.3,0.2,0.6,0.2,0.9-0.1c0.7-0.7,1.9-1,2.8-0.6c1,0.4,1.6,1.4,1.5,2.4
			c0,0.3,0.2,0.6,0.6,0.7c0.4,0.1,0.9,0.1,1.3,0.1c0.4,0,0.8,0,1.2-0.1c0.3,0,0.6-0.3,0.6-0.6c0-1,0.6-2,1.5-2.4
			c0.9-0.4,2.1-0.1,2.8,0.6c0.2,0.2,0.6,0.3,0.8,0.1c0.7-0.5,1.3-1.1,1.8-1.8c0.2-0.3,0.2-0.6-0.1-0.9c-0.8-0.7-1-1.8-0.6-2.8
			c0.4-0.9,1.3-1.5,2.3-1.5l0.1,0c0.3,0,0.6-0.2,0.7-0.6C22.5,11.7,22.5,10.8,22.4,10z M11.3,15c-2.1,0-3.7-1.7-3.7-3.7
			c0-2.1,1.7-3.7,3.7-3.7c2.1,0,3.7,1.7,3.7,3.7C15,13.3,13.3,15,11.3,15z"/>
	</g>
</g>
</svg>
