<?xml version="1.0" encoding="utf-8"?>
<!-- Generator: Adobe Illustrator 19.0.0, SVG Export Plug-In . SVG Version: 6.00 Build 0)  -->
<svg version="1.1" id="Layer_1" xmlns="http://www.w3.org/2000/svg" xmlns:xlink="http://www.w3.org/1999/xlink" x="0px" y="0px"
	 viewBox="0 0 40.1 40.1" style="enable-background:new 0 0 40.1 40.1;" xml:space="preserve">
<style type="text/css">
	.st0{fill:#FFFFFF;}
</style>
<g id="XMLID_7_">
	<path id="XMLID_5_" class="st0" d="M39.9,24.3L39.7,24l-0.2,0.3c-1.1,2.1-4.8,3.4-7.8,3.4c-3.7,0-22.3-0.6-24.7-0.7
		c-0.5,0-1,0-1.6,0c-0.4,0-0.7,0-1,0c-0.3,0-0.6,0-0.8,0c-0.8,0-1.4-0.2-1.9-0.4c-0.3-0.1-0.6-0.2-0.8-0.2c-0.2,0-0.3,0-0.4,0.1
		c-0.1,0.1-0.2,0.3-0.2,0.6c0,2.5,1.4,2.7,3.2,2.7c0.3,0,0.5,0,0.8,0c0.3,0,0.7,0,1,0c0.6,0,1.1,0,1.5,0c2.4,0.1,20.9,0.7,24.7,0.7
		c1.9,0,4-0.5,5.6-1.4c1.9-1,2.9-2.3,2.9-3.7C40.2,25.1,40.1,24.7,39.9,24.3z"/>
	<path id="XMLID_8_" class="st0" d="M3.4,25.8c0.3,0,0.5,0,0.8,0c0.3,0,0.7,0,1,0c0.6,0,1.1,0,1.5,0c2.4,0.1,20.8,0.7,24.5,0.7
		c1.9,0,4-0.5,5.6-1.4c1.9-1,2.9-2.3,2.9-3.7c0-2-2.3-2.7-4.8-3.4c-1.3-0.4-2.7-0.8-3.9-1.4c-0.5-0.3-1.3-0.7-2.3-1.2
		c0,0,0-0.1,0-0.1c0-0.8-0.7-1.5-1.5-1.5c-0.4,0-0.7,0.1-1,0.4c-0.4-0.2-0.7-0.4-1.1-0.5c0-0.8-0.7-1.5-1.5-1.5
		c-0.3,0-0.6,0.1-0.9,0.3c-0.3-0.2-0.7-0.3-1-0.5c0-0.1,0-0.1,0-0.2c0-0.8-0.7-1.5-1.5-1.5c-0.4,0-0.8,0.2-1.1,0.4
		c-3.2-1.6-5.9-2.8-6.1-3c-0.1-0.1-0.3-0.2-0.5-0.2c-0.3,0-0.5,0.1-0.7,0.3L10,10.5c-0.2,0.3-0.3,0.7-0.3,1c0.1,0.6,0.8,1.1,1.3,1.5
		c0.2,0.1,0.5,0.4,0.6,0.5c0,0,0,0,0,0c-0.3,0.3-1.2,0.7-2.6,0.7c-0.8,0-1.6-0.2-2.4-0.4c-1-0.4-1.4-1.3-1.7-2.1
		c-0.3-0.7-0.5-1.2-1-1.2c-0.4,0-0.8,0.4-1.5,1.2C0,14.4,0.1,18.9,0.2,22.1c0,0.3,0,0.7,0,1C0.2,25.6,1.5,25.8,3.4,25.8z M22.7,16.8
		c0,0,0.3-0.3,0.7-0.2c0.3,0.1,1.1,0.3,1.5,0.4c0.4,0.1,0,0.4,0,0.4l-6,5.5c0,0-0.2,0.2-0.6,0.2c-0.6,0-1.7,0-2.2,0
		c-0.4,0-0.1-0.3-0.1-0.3S22.7,16.8,22.7,16.8z M18.1,15.5c0,0,0.5-0.5,1-0.3c0.3,0.1,0.9,0.3,1.4,0.4c0.4,0.1,0,0.5,0,0.5l-7.4,6.7
		c0,0-0.2,0.3-0.8,0.3c-0.6,0-1.9,0-2.4,0c-0.3,0,0-0.3,0-0.3L18.1,15.5z"/>
</g>
</svg>
