<?xml version="1.0" encoding="utf-8"?>
<!-- Generator: Adobe Illustrator 19.0.0, SVG Export Plug-In . SVG Version: 6.00 Build 0)  -->
<svg version="1.1" id="Layer_1" xmlns="http://www.w3.org/2000/svg" xmlns:xlink="http://www.w3.org/1999/xlink" x="0px" y="0px"
	 viewBox="0 0 40.1 40.1" style="enable-background:new 0 0 40.1 40.1;" xml:space="preserve">
<style type="text/css">
	.st0{fill:#FFFFFF;}
</style>
<g id="XMLID_8_">
	<g id="XMLID_9_">
		<path id="XMLID_6_" class="st0" d="M3.2,39.2h10.6c-1.3-1-2.4-2.5-3-4.3c-1.7-0.4-3-2.1-3-4.2c0-2.2,1.4-4,3.2-4.2
			c1.2-2.9,3.6-4.9,6.3-4.9l0.8-10.3h1.2V8.9h-9.3c0-3.6,2.5-6.5,6.1-6.5c1,0,1-1.5,0-1.5c-4.5,0-7.7,3.6-7.6,8H0v2.4h1.2L3.2,39.2z
			"/>
		<path id="XMLID_5_" class="st0" d="M16,38.8c0.4,0.1,0.9,0.2,1.4,0.2h14.5c2.2,0,4.1-1.6,5.1-4.1h-0.5h-2H16.3h-1.6h-2h-0.5
			C13.1,36.9,14.4,38.3,16,38.8z"/>
		<path id="XMLID_4_" class="st0" d="M17,26.5h16.5H36h0.7c-1.1-2.1-2.8-3.5-4.8-3.5H17.4c0,0-0.1,0-0.1,0c-2,0.1-3.7,1.4-4.7,3.5
			h0.7h2.4H17z"/>
		<path id="XMLID_10_" class="st0" d="M12,27.9h-0.5c-0.1,0-0.1,0-0.2,0c-0.3,0-0.5,0.1-0.8,0.3c-0.8,0.5-1.3,1.4-1.3,2.6
			c0,1.1,0.5,2,1.2,2.5c0.2,0.2,0.5,0.3,0.8,0.3c0.1,0,0.2,0,0.4,0h0.4h0.1h1.6h2.9h19.4h1.6h0.1h0.4c0.1,0,0.2,0,0.4,0
			c0.3-0.1,0.5-0.2,0.8-0.3c0.7-0.5,1.2-1.4,1.2-2.5c0-1.1-0.5-2.1-1.3-2.6c-0.2-0.1-0.5-0.2-0.8-0.3c-0.1,0-0.1,0-0.2,0h-0.5H37
			h-1.7H16.9h-3h-1.7H12z M12.9,29.6c0.9-0.4,1.8-0.4,2.9,0.1c0.3,0.1,0.5,0.3,0.8,0.5c0.7,0.4,1.4,0.9,2.3,0.3
			c0.4-0.3,1-0.7,1.5-0.8c1.1-0.2,2-0.2,3,0.5c1.6,1.1,3,1.4,4.7,0.2c0.7-0.5,1.6-1.1,2.5-1.1c1.1,0.1,2.1,0.5,3,1
			c1.2,0.7,1.8,0.7,2.8,0c0.1-0.1,0.3-0.2,0.5-0.4c0.2-0.2,0.5-0.2,0.8,0c0,0,0.1,0.1,0.1,0.1c0.2,0.2,0.3,0.5,0.1,0.7
			c0,0,0,0.1-0.1,0.1c0,0,0,0-0.1,0c-0.4,0.4-0.9,0.7-1.3,0.9c-0.9,0.5-1.9,0.5-3-0.2c-1.5-0.9-2.8-1.4-4.3-0.4
			c-0.8,0.5-1.7,1.1-2.7,1.2c-1.3,0.1-2.2-0.3-3.2-1c-1.9-1.2-3-0.1-4.7,0.6c-0.8,0.3-1.4-0.1-2-0.5c-0.3-0.2-0.6-0.4-0.9-0.5
			c-1.3-0.5-2.2-0.4-3,0.2c-0.3,0.3-0.7,0.6-1,1c0,0.1-0.1,0.1-0.2,0.1c0,0-0.1,0-0.1,0c-0.2,0.1-0.5,0-0.6-0.2
			c-0.2-0.2-0.2-0.5,0-0.8c0,0,0,0,0-0.1c0.2-0.2,0.3-0.4,0.5-0.6c0.1-0.1,0.1-0.1,0.2-0.1C12,30.2,12.4,29.8,12.9,29.6z"/>
	</g>
</g>
</svg>
