<?xml version="1.0" encoding="utf-8"?>
<!-- Generator: Adobe Illustrator 19.0.0, SVG Export Plug-In . SVG Version: 6.00 Build 0)  -->
<svg version="1.1" id="Layer_1" xmlns="http://www.w3.org/2000/svg" xmlns:xlink="http://www.w3.org/1999/xlink" x="0px" y="0px"
	 viewBox="0 0 40.1 40.1" style="enable-background:new 0 0 40.1 40.1;" xml:space="preserve">
<style type="text/css">
	.st0{fill:#FFFFFF;}
</style>
<g id="XMLID_3_">
	<path id="XMLID_4_" class="st0" d="M12.5,13.3L3.3,4c1.2-1.2,2.4-2.4,3.6-3.6c0.6-0.6,1.4-0.6,2,0l7.2,7.2c0.6,0.6,0.6,1.5,0,2
		l-1.6,1.6L13,12.7C12.8,12.9,12.7,13.1,12.5,13.3z M20.1,28.4c-1.5-1.3-3-2.7-4.4-4.1c-1.4-1.4-2.8-2.9-4.1-4.4
		c-1.1-1.2-1.3-3-0.7-4.5L1.4,5.8c-2.2,2.3-1.9,7.9,0.5,12.9c1,2.1,2.4,4.1,3.8,5.9c1.4,1.8,2.9,3.5,4.5,5.2
		c1.6,1.6,3.3,3.2,5.2,4.5c1.8,1.4,3.8,2.7,5.9,3.8c5,2.4,10.6,2.7,12.9,0.5l-9.5-9.5C23.2,29.6,21.4,29.4,20.1,28.4z M39.6,31.2
		L32.4,24c-0.6-0.5-1.5-0.5-2,0h0l-1.6,1.6L27.3,27c-0.2,0.2-0.4,0.3-0.6,0.5l9.3,9.3c1.2-1.2,2.4-2.4,3.6-3.6
		C40.2,32.6,40.2,31.7,39.6,31.2z"/>
</g>
</svg>
