<?xml version="1.0" encoding="utf-8"?>
<!-- Generator: Adobe Illustrator 19.0.0, SVG Export Plug-In . SVG Version: 6.00 Build 0)  -->
<svg version="1.1" id="Layer_1" xmlns="http://www.w3.org/2000/svg" xmlns:xlink="http://www.w3.org/1999/xlink" x="0px" y="0px"
	 viewBox="0 0 40.1 40.1" style="enable-background:new 0 0 40.1 40.1;" xml:space="preserve">
<style type="text/css">
	.st0{fill:#FFFFFF;}
</style>
<g id="XMLID_25_">
	<g id="Layer_1_21_">
		<path id="XMLID_26_" class="st0" d="M35.7,37.5l-5.9-10.7c1.7-0.3,2.9-1.8,2.9-3.4V7.6C32.7,3.4,29.3,0,25,0H15
			c-4.2,0-7.7,3.4-7.7,7.7v15.7c0,1.8,1.2,3.2,2.9,3.4L4.4,37.5c-0.4,0.9-0.2,1.9,0.7,2.4c0.3,0.2,0.5,0.2,0.8,0.2
			c0.6,0,1.2-0.4,1.5-0.9l0.5-0.9h24.2l0.5,0.9c0.4,0.6,0.9,0.9,1.5,0.9c0.3,0,0.5-0.1,0.8-0.2C35.8,39.5,36.1,38.4,35.7,37.5z
			 M27.4,29.7H12.7l1.5-2.7h11.8L27.4,29.7z M27.2,23.8c-1.4,0-2.5-1.1-2.5-2.5c0-1.4,1.1-2.5,2.5-2.5c1.4,0,2.5,1.1,2.5,2.5
			C29.7,22.5,28.6,23.8,27.2,23.8z M10.4,8.7c0-2.7,2.2-4.9,4.8-4.9h9.6c2.6,0,4.9,2.2,4.9,4.9v4.2c0,1-0.8,1.7-1.8,1.7H12.2
			c-1,0-1.7-0.8-1.7-1.7L10.4,8.7L10.4,8.7z M12.9,18.6c1.4,0,2.5,1.1,2.5,2.5c0,1.4-1.1,2.5-2.5,2.5s-2.5-1.1-2.5-2.5
			C10.4,19.7,11.5,18.6,12.9,18.6z M9.3,35.7l1.9-3.4h17.5l1.9,3.4H9.3z"/>
	</g>
</g>
</svg>
